<?xml version="1.0" standalone="no"?>
<!DOCTYPE svg PUBLIC "-//W3C//DTD SVG 20010904//EN"
 "http://www.w3.org/TR/2001/REC-SVG-20010904/DTD/svg10.dtd">
<svg version="1.0" xmlns="http://www.w3.org/2000/svg"
 width="1025.000000pt" height="1025.000000pt" viewBox="0 0 1025.000000 1025.000000"
 preserveAspectRatio="xMidYMid meet">
<metadata>
Created by potrace 1.11, written by Peter Selinger 2001-2013
</metadata>
<g transform="translate(0.000000,1025.000000) scale(0.100000,-0.100000)"
fill="#000000" stroke="none">
<path d="M4785 10243 c-1115 -73 -2192 -521 -3038 -1263 -134 -118 -386 -370
-494 -495 -731 -848 -1156 -1869 -1243 -2984 -13 -173 -13 -578 0 -752 42
-537 157 -1038 352 -1524 69 -172 174 -396 189 -406 6 -3 9 -8 7 -11 -6 -9 45
-107 53 -102 5 3 6 -1 4 -8 -3 -8 3 -23 13 -33 10 -11 18 -24 19 -28 2 -21 55
-107 64 -102 5 3 6 0 4 -7 -3 -8 2 -22 11 -33 8 -11 12 -14 8 -6 -5 9 -3 12 5
7 6 -4 9 -11 6 -16 -8 -12 6 -41 16 -34 5 3 9 2 8 -3 -3 -18 2 -30 19 -49 10
-10 20 -23 23 -29 2 -5 8 -9 12 -7 5 1 6 -2 2 -7 -8 -14 65 -122 78 -114 5 3
7 1 3 -5 -3 -6 1 -18 10 -26 8 -9 13 -16 9 -16 -4 0 3 -12 15 -28 12 -15 27
-27 33 -27 7 0 12 -9 12 -20 0 -11 5 -20 12 -20 6 0 15 -4 20 -9 5 -5 3 -6 -4
-2 -7 4 -13 2 -13 -4 0 -6 7 -13 15 -16 8 -4 15 -11 16 -18 0 -6 44 -65 97
-131 74 -91 103 -120 119 -119 13 1 20 -3 17 -7 -3 -5 -10 -7 -15 -4 -24 15
-5 -16 26 -44 19 -17 35 -34 35 -39 0 -15 106 -112 115 -105 4 5 5 3 2 -3 -6
-11 21 -43 30 -36 3 2 8 0 11 -4 4 -4 1 -4 -6 0 -6 4 -12 3 -12 -2 0 -11 30
-26 43 -23 5 1 5 -3 2 -9 -8 -14 75 -91 89 -83 5 3 6 2 3 -4 -8 -13 47 -66 58
-56 4 5 5 3 2 -4 -9 -14 62 -75 76 -66 6 3 7 1 4 -4 -8 -13 61 -76 74 -67 5 3
8 0 7 -8 -2 -7 3 -12 10 -10 6 1 11 -4 10 -10 -2 -8 6 -12 22 -10 17 1 21 -1
11 -7 -10 -6 8 -26 69 -75 45 -36 87 -63 93 -59 6 3 7 1 3 -5 -8 -13 28 -35
39 -24 5 4 5 2 2 -4 -8 -13 50 -57 63 -49 6 4 9 1 8 -7 -2 -7 5 -12 14 -12 10
1 15 -2 13 -7 -6 -9 112 -92 132 -92 7 0 11 -3 8 -6 -3 -2 22 -22 55 -44 52
-32 64 -36 78 -26 14 11 15 11 5 -1 -10 -11 -5 -19 29 -41 23 -15 45 -26 49
-24 4 3 10 -2 13 -11 4 -9 9 -14 12 -11 4 3 13 -1 22 -9 8 -9 23 -13 33 -11
11 3 16 0 13 -7 -6 -15 43 -39 58 -30 6 4 8 2 5 -3 -8 -13 109 -76 125 -67 6
4 8 3 5 -3 -4 -6 0 -13 8 -17 8 -3 15 -1 15 5 0 6 5 7 10 4 6 -4 8 -10 5 -15
-6 -10 33 -25 54 -21 7 1 10 -2 7 -7 -6 -10 84 -55 109 -55 8 0 15 -5 15 -10
0 -6 3 -8 6 -4 4 3 13 -1 22 -9 8 -9 23 -13 34 -11 10 3 16 2 13 -3 -5 -8 48
-33 71 -33 8 0 14 -5 14 -10 0 -5 7 -7 15 -3 8 3 15 1 15 -3 0 -15 56 -31 68
-19 6 6 12 6 17 -3 5 -8 4 -10 -3 -5 -7 4 -12 3 -12 -3 0 -9 56 -27 73 -23 4
1 7 -3 7 -9 0 -6 9 -8 21 -4 16 5 19 4 14 -6 -6 -9 -3 -11 8 -6 10 4 17 1 17
-5 0 -6 3 -8 7 -5 3 4 12 2 19 -4 8 -6 21 -9 29 -5 9 3 13 2 10 -4 -7 -12 40
-24 56 -14 8 4 9 3 5 -4 -4 -7 -3 -12 3 -12 5 0 17 -3 27 -7 13 -5 15 -3 10 8
-4 8 -1 6 7 -3 15 -19 32 -25 22 -8 -3 6 1 7 10 4 9 -4 13 -9 10 -12 -9 -9 75
-31 93 -25 11 5 13 3 7 -7 -6 -10 -4 -12 8 -7 9 3 19 2 22 -3 4 -6 14 -10 23
-10 15 0 15 2 2 10 -9 6 -10 10 -3 10 7 0 16 -6 20 -13 4 -8 50 -24 102 -37
78 -19 95 -21 102 -9 7 11 9 11 9 -2 0 -19 105 -44 135 -33 13 5 16 4 11 -4
-5 -8 2 -12 19 -12 20 0 26 4 22 14 -4 10 -1 13 8 10 8 -3 11 -13 8 -21 -5
-13 -1 -15 21 -11 14 3 29 1 32 -3 3 -5 14 -9 25 -9 11 0 18 4 14 9 -6 11 34
6 44 -5 3 -4 -2 -4 -12 -1 -12 5 -16 3 -11 -4 4 -7 22 -9 45 -6 22 3 37 1 33
-4 -3 -5 4 -9 15 -9 12 0 21 5 21 11 0 6 6 4 14 -4 19 -19 166 -33 176 -16 6
8 9 8 12 -2 6 -17 128 -26 128 -9 0 7 6 6 16 -4 8 -9 31 -16 50 -16 33 0 34 1
24 22 l-11 23 18 -21 c20 -23 90 -33 76 -11 -4 7 0 6 10 -2 14 -11 20 -11 32
-1 9 7 18 10 22 6 3 -3 0 -6 -7 -6 -7 0 -10 -3 -7 -6 4 -4 14 -1 24 7 11 9 14
10 9 2 -4 -7 -3 -13 3 -13 5 0 13 5 16 10 3 6 12 10 18 10 8 0 8 -3 -2 -9 -9
-6 -5 -8 13 -8 15 -1 29 3 32 8 3 5 11 9 17 9 7 0 6 -4 -3 -10 -8 -5 -10 -10
-5 -10 6 0 17 6 24 13 11 10 13 10 7 0 -4 -7 -2 -13 3 -13 6 0 11 6 11 13 0 9
3 8 9 -2 5 -7 14 -10 20 -7 6 4 8 12 5 18 -4 7 -2 8 5 4 6 -4 9 -12 6 -17 -4
-5 -1 -9 6 -9 6 0 9 8 6 20 -3 11 -1 18 4 14 5 -3 9 -12 9 -20 0 -17 12 -18
29 -2 11 10 13 10 7 1 -5 -9 2 -13 23 -13 16 0 32 6 34 13 4 10 6 10 6 0 1
-20 62 -16 78 5 8 9 12 11 8 5 -3 -7 -2 -13 4 -13 5 0 11 5 13 12 2 6 12 12
21 14 9 1 15 -2 11 -7 -3 -5 -10 -7 -15 -4 -5 4 -9 1 -9 -4 0 -15 23 -14 39 1
11 11 12 10 6 -1 -7 -12 1 -13 46 -7 29 4 57 13 61 19 6 9 8 8 8 -2 0 -10 10
-12 42 -7 23 4 49 12 57 19 12 9 13 9 7 -1 -11 -18 29 -15 48 4 10 10 16 11
16 4 0 -8 9 -10 28 -6 15 4 39 7 55 6 15 0 27 5 27 10 0 6 5 8 10 5 14 -9 121
5 115 15 -2 4 7 5 21 2 15 -3 33 2 46 14 12 11 18 13 14 7 -4 -8 -1 -13 8 -13
9 0 16 4 16 9 0 4 12 6 26 3 19 -3 25 -1 20 7 -6 8 0 10 18 5 15 -3 26 -2 26
4 0 6 9 8 20 5 11 -3 26 0 33 6 8 6 16 9 18 6 3 -2 38 5 79 16 41 11 81 21 88
21 6 1 12 4 12 7 0 3 15 7 32 8 18 2 34 7 36 12 2 6 9 8 17 5 7 -3 16 0 20 5
3 6 11 9 16 5 6 -3 17 2 25 12 9 11 13 13 9 6 -3 -6 -1 -12 4 -12 6 0 11 3 11
8 0 4 10 8 23 9 12 0 36 7 52 14 17 7 34 11 39 10 4 -1 19 5 32 14 13 8 24 13
24 10 0 -7 144 47 151 58 3 5 9 8 13 8 28 -4 38 1 32 15 -5 13 -3 14 6 6 10
-8 33 -2 88 20 41 18 78 36 81 41 3 5 9 8 13 8 20 -3 26 0 20 11 -4 7 -3 8 4
4 15 -9 109 32 116 51 3 8 10 12 16 8 17 -11 394 191 384 206 -3 5 1 6 8 4 8
-3 25 5 38 17 14 13 25 21 25 18 0 -2 14 4 32 15 18 10 30 22 28 26 -3 4 3 6
13 5 9 0 16 5 14 12 -1 8 2 11 8 7 10 -6 74 34 218 138 63 46 81 64 77 78 -3
9 -1 20 4 24 6 3 8 0 5 -8 -10 -27 14 -28 35 -2 11 15 23 26 28 27 18 2 52 31
47 39 -3 5 -1 8 4 7 10 -3 112 69 112 79 0 2 -5 1 -12 -3 -7 -5 -8 -3 -4 5 5
7 11 10 14 7 9 -9 32 15 25 27 -4 6 -1 7 6 2 15 -9 83 53 74 68 -3 5 0 8 8 5
17 -6 91 61 82 75 -3 6 -2 7 4 4 15 -10 57 39 47 55 -6 11 -5 11 8 0 14 -11
17 -10 23 8 4 12 19 29 34 38 16 9 29 20 30 25 0 4 3 7 6 7 3 0 18 14 32 31
15 17 51 54 80 82 29 27 50 53 47 58 -3 5 0 9 6 9 6 0 8 5 4 12 -4 6 -3 8 3 5
13 -8 46 27 36 38 -5 4 -3 5 4 1 14 -7 36 27 25 39 -4 3 0 5 8 3 8 -1 14 3 12
10 -1 6 2 11 6 10 14 -5 74 71 66 83 -4 7 -3 9 4 6 5 -4 33 22 61 58 28 36 48
65 44 65 -4 0 3 7 15 16 19 13 21 18 10 32 -10 12 -10 14 0 8 17 -10 38 4 21
15 -11 7 -10 9 3 9 21 0 62 56 52 71 -4 8 -3 9 4 5 7 -4 32 24 62 69 28 41 47
75 43 75 -4 0 1 6 12 13 12 9 15 19 10 28 -5 8 -5 11 0 7 8 -8 52 48 57 73 2
7 11 21 21 31 19 20 23 43 5 32 -7 -4 -8 -3 -4 5 4 6 11 9 16 6 12 -7 72 103
64 117 -5 7 -2 8 6 3 10 -6 12 -4 7 9 -4 9 -3 15 1 12 12 -7 44 52 36 66 -4 7
-3 8 4 4 11 -6 14 0 11 20 0 4 4 10 9 13 5 3 19 24 30 47 16 32 18 44 9 53 -9
10 -9 11 4 6 10 -4 19 3 28 21 10 23 10 26 -4 20 -9 -3 -13 -2 -10 4 3 6 12
10 20 10 18 0 47 73 31 82 -7 5 -6 8 5 8 17 0 93 165 83 181 -3 5 -1 9 4 9 6
0 15 12 20 28 5 15 13 36 18 46 5 14 4 17 -4 12 -8 -5 -10 -2 -6 9 4 9 9 13
12 10 10 -10 42 83 35 101 -4 11 -2 15 4 11 13 -8 44 87 36 110 -4 11 -3 14 5
9 11 -7 17 13 13 38 -1 5 3 12 9 16 6 4 12 18 14 31 1 14 6 30 10 37 4 7 4 17
1 22 -3 6 -2 10 3 10 8 0 33 83 46 151 1 7 8 33 15 57 6 23 9 47 6 52 -3 6 -2
10 3 10 14 0 46 174 33 178 -6 2 -11 8 -11 14 0 6 7 8 15 4 11 -4 15 2 16 22
1 15 4 41 6 57 3 17 6 44 7 62 0 17 4 29 9 26 4 -2 7 8 6 24 -1 15 2 41 6 57
5 18 4 27 -2 23 -5 -3 -15 -1 -23 5 -12 8 -12 9 3 4 13 -4 20 2 27 20 14 36
12 84 -2 84 -7 0 -5 5 5 11 12 7 17 21 16 47 0 20 2 65 7 100 7 65 -7 118 -29
105 -6 -4 -7 -1 -2 7 6 10 11 10 20 -3 16 -22 25 -11 25 30 0 37 -6 41 -27 16
-13 -16 -13 -16 -3 5 6 12 15 22 20 22 5 0 8 25 8 55 -1 30 -4 55 -6 55 -3 0
-11 -8 -19 -17 -13 -16 -13 -16 -3 5 6 12 14 22 19 22 5 0 9 11 9 25 0 13 -4
22 -9 19 -5 -3 -9 -1 -9 5 0 5 6 12 13 15 10 5 10 7 0 12 -7 3 -13 10 -13 15
0 6 5 7 10 4 6 -3 10 -2 10 4 0 5 -4 13 -10 16 -5 3 -10 12 -10 18 0 7 4 6 10
-3 5 -8 10 -10 10 -4 0 5 -6 16 -12 23 -7 8 -8 11 -2 8 7 -4 11 8 11 33 0 45
-3 48 -24 23 -13 -16 -13 -16 -3 5 6 12 15 22 20 22 6 0 10 7 10 15 0 20 -10
19 -27 -2 -13 -16 -13 -16 -3 5 6 12 15 22 20 22 6 0 8 27 5 68 -11 166 -15
230 -14 264 0 25 -6 40 -18 47 -10 6 -12 11 -5 11 15 0 17 70 1 70 -6 0 -8 8
-4 19 5 17 -10 147 -21 180 -4 11 -7 11 -22 0 -16 -13 -16 -12 1 7 21 25 22
50 2 58 -8 3 -15 11 -15 18 0 9 3 9 11 -2 8 -11 9 -5 5 25 -3 22 -6 46 -6 53
0 6 -5 12 -11 12 -6 0 -9 -7 -5 -15 10 -28 -3 -15 -19 18 -12 25 -13 28 -1 14
9 -12 16 -15 21 -7 8 13 -35 210 -46 210 -4 0 -5 8 -2 19 3 10 0 22 -6 25 -5
4 -8 13 -4 21 3 10 -1 15 -13 15 -14 0 -16 2 -6 9 19 11 -13 120 -42 144 -18
15 -19 16 -2 10 15 -5 18 -3 13 10 -3 9 -18 55 -33 102 -24 78 -29 85 -48 79
-19 -6 -20 -5 -4 7 15 12 16 19 6 51 -12 41 -44 65 -33 25 5 -19 4 -20 -5 -4
-13 20 -4 41 12 31 8 -5 9 -1 4 12 -5 10 -15 38 -23 62 -9 24 -19 39 -25 35
-7 -3 -8 -1 -4 5 4 7 4 18 -1 25 -8 12 -9 18 -12 38 0 7 -10 9 -23 6 -21 -5
-21 -5 -6 7 17 12 17 15 0 54 -15 37 -29 48 -55 43 -5 -1 -6 3 -2 8 3 6 13 7
21 4 12 -5 11 4 -7 38 -13 24 -23 47 -24 50 -1 21 -70 147 -77 143 -5 -4 -9 0
-7 7 3 28 -1 40 -13 33 -8 -5 -9 -2 -5 9 3 9 1 22 -6 29 -7 8 -13 19 -15 26
-3 16 -103 192 -109 192 -2 0 -1 -5 3 -12 4 -7 3 -8 -5 -4 -6 4 -11 13 -10 19
3 23 -1 33 -21 55 -11 12 -19 23 -18 24 5 6 -36 67 -43 63 -4 -3 -6 3 -5 13 0
9 -5 16 -12 14 -8 -1 -11 2 -7 7 9 15 -24 61 -44 61 -11 0 -12 3 -4 8 8 5 6
14 -8 32 -18 21 -19 22 -10 3 6 -12 7 -24 3 -27 -5 -3 -9 0 -10 7 -5 44 -10
56 -36 95 -20 30 -32 39 -41 32 -12 -10 -35 5 -35 24 0 5 7 1 15 -10 15 -18
15 -18 13 6 -2 14 -9 24 -16 22 -8 -1 -11 2 -7 8 7 11 -79 128 -129 174 -17
16 -24 25 -16 21 8 -5 4 4 -9 18 -24 27 -59 38 -45 15 4 -7 3 -8 -4 -4 -6 4
-9 13 -6 21 4 8 11 12 18 8 6 -4 -18 26 -53 65 -66 75 -93 96 -106 84 -5 -4
-5 -1 -1 6 4 7 13 9 19 6 7 -4 -5 10 -25 31 -33 35 -39 37 -55 24 -17 -13 -17
-13 -4 4 13 16 11 21 -15 45 -16 15 -35 27 -43 27 -8 0 -16 7 -18 15 -4 13 -3
13 6 0 6 -8 11 -11 11 -6 0 27 -275 280 -297 272 -8 -4 -11 -1 -7 5 9 16 -35
59 -55 52 -9 -4 -13 -3 -9 1 7 8 -30 56 -43 56 -5 0 -20 11 -34 26 -14 14 -30
22 -37 18 -6 -4 -8 -3 -5 3 9 14 -60 66 -75 57 -6 -4 -8 -3 -5 3 9 14 -60 66
-75 57 -6 -4 -8 -3 -5 3 9 14 -40 46 -55 37 -6 -4 -8 -3 -4 4 3 6 -7 20 -24
32 -21 15 -30 17 -31 8 0 -7 -5 -3 -11 10 -7 13 -17 21 -25 18 -8 -3 -12 -2
-10 2 3 4 -7 16 -21 26 -16 13 -23 14 -18 5 4 -8 -1 -4 -10 9 -9 12 -23 22
-30 22 -8 0 -14 3 -14 8 0 12 -61 42 -72 35 -7 -3 -8 -1 -4 5 3 6 -3 16 -14
22 -11 6 -20 7 -20 3 0 -4 -6 1 -13 12 -9 11 -19 15 -27 10 -8 -5 -11 -4 -7 2
7 11 -49 46 -63 38 -5 -3 -14 4 -20 15 -6 11 -15 18 -19 15 -5 -2 -14 2 -21
11 -7 8 -19 13 -26 10 -8 -3 -17 1 -21 8 -13 21 -101 68 -114 60 -8 -5 -9 -3
-4 6 6 10 4 12 -9 7 -11 -5 -15 -3 -10 5 5 8 2 9 -10 5 -9 -4 -15 -3 -12 2 7
11 -49 32 -60 23 -4 -4 -4 -1 0 6 6 11 -11 17 -36 13 -5 0 -8 4 -8 10 0 6 -7
8 -16 5 -8 -3 -12 -2 -9 3 5 9 -32 27 -48 23 -4 -1 -15 5 -24 13 -8 9 -22 14
-30 11 -8 -3 -12 -2 -9 3 7 11 -22 23 -35 15 -5 -3 -9 0 -9 6 0 7 -7 9 -16 6
-8 -3 -13 -2 -10 3 6 9 -37 25 -66 24 -10 0 -15 3 -13 7 7 11 -85 41 -99 33
-6 -3 -8 -2 -3 2 8 10 -112 57 -125 49 -4 -3 -8 0 -8 6 0 7 -7 10 -15 6 -8 -3
-15 -1 -15 5 0 5 -6 9 -12 8 -7 -1 -20 1 -28 4 -47 20 -103 36 -111 31 -5 -3
-9 -1 -9 5 0 8 -61 25 -95 26 -5 0 -12 3 -15 6 -10 12 -149 41 -161 33 -7 -4
-10 -3 -6 3 10 17 -412 94 -648 118 -191 19 -680 30 -860 18z m48 -478 c-3 -9
-8 -14 -10 -11 -3 3 -2 9 2 15 9 16 15 13 8 -4z m52 5 c-3 -5 -12 -10 -18 -10
-7 0 -6 4 3 10 19 12 23 12 15 0z m60 0 c-3 -5 -12 -10 -18 -10 -7 0 -6 4 3
10 19 12 23 12 15 0z m68 -5 c-3 -9 -8 -14 -10 -11 -3 3 -2 9 2 15 9 16 15 13
8 -4z m47 5 c0 -5 -5 -10 -11 -10 -5 0 -7 5 -4 10 3 6 8 10 11 10 2 0 4 -4 4
-10z m74 -4 c-3 -8 3 -16 15 -19 12 -3 21 0 21 5 0 7 4 7 13 0 6 -5 87 -12
178 -14 91 -3 170 -7 175 -10 20 -11 96 -9 110 3 12 10 15 10 12 -1 -2 -10 14
-16 57 -22 33 -5 68 -7 78 -4 9 2 17 0 17 -5 0 -13 34 -11 49 4 10 10 12 9 9
-3 -2 -9 6 -16 21 -18 13 -2 21 0 17 6 -7 12 20 10 31 -3 4 -4 1 -5 -7 0 -10
5 -12 5 -5 -2 14 -15 109 -28 101 -14 -4 7 -1 8 8 5 9 -3 13 -10 10 -15 -3 -5
3 -9 13 -9 10 0 29 -3 42 -7 19 -5 22 -3 17 8 -5 9 -2 8 6 -2 13 -16 83 -35
74 -21 -3 5 1 9 9 9 8 0 13 -5 12 -11 -1 -6 7 -10 17 -9 11 1 26 -5 34 -13 17
-17 29 -11 16 9 -5 7 -2 5 8 -5 19 -21 32 -24 23 -5 -4 6 0 4 8 -5 17 -21 33
-23 40 -5 3 7 6 5 6 -5 1 -10 4 -18 9 -19 4 0 16 -2 27 -5 11 -2 29 -5 40 -7
11 -1 23 -6 26 -10 4 -5 22 -9 42 -10 20 0 33 -5 30 -11 -4 -5 1 -7 10 -3 10
3 17 2 17 -3 0 -6 7 -10 16 -10 8 0 13 4 9 9 -3 5 -1 12 4 16 6 3 8 -3 6 -15
-4 -19 0 -21 38 -24 6 -1 14 -4 17 -8 10 -13 172 -68 182 -62 7 4 8 2 4 -4 -7
-11 8 -16 42 -15 7 1 11 -1 8 -4 -6 -6 81 -52 98 -53 5 0 1 9 -8 19 -13 14
-14 21 -5 27 7 4 10 3 6 -3 -3 -5 5 -21 18 -35 13 -14 21 -29 17 -33 -4 -4 4
-2 17 5 13 6 21 8 18 2 -9 -13 39 -33 60 -25 10 4 14 2 9 -5 -3 -6 3 -13 14
-17 12 -4 17 -11 13 -18 -4 -7 1 -6 10 2 9 7 17 9 17 3 0 -12 60 -38 79 -34 7
2 10 -1 7 -7 -4 -6 7 -17 24 -26 16 -8 30 -13 30 -10 0 3 6 0 14 -7 8 -7 12
-17 9 -21 -3 -5 4 -4 16 2 12 7 21 8 20 4 -4 -22 3 -31 21 -28 11 2 20 -1 20
-6 0 -6 5 -7 12 -3 7 5 9 2 5 -8 -4 -12 0 -15 18 -13 15 1 22 -2 18 -8 -4 -7
0 -8 12 -3 16 6 16 4 4 -11 -9 -11 -10 -14 -1 -9 7 4 12 2 12 -4 0 -6 5 -8 10
-5 6 4 8 10 5 15 -3 5 -1 11 4 14 5 4 8 -2 7 -11 -3 -17 70 -73 94 -73 5 0 10
-4 10 -10 0 -5 5 -10 11 -10 5 0 8 4 5 8 -3 5 2 9 10 9 9 0 11 -4 5 -10 -11
-11 -3 -39 9 -32 4 2 17 -5 29 -16 12 -11 27 -19 34 -16 7 2 -1 11 -18 20 -21
12 -24 17 -10 15 25 -4 44 -27 40 -50 -3 -15 0 -16 15 -8 13 7 21 7 26 -2 4
-7 3 -8 -4 -4 -7 4 -12 2 -12 -3 0 -6 9 -11 21 -11 11 0 18 -4 15 -9 -3 -4 5
-13 19 -19 18 -8 25 -8 29 1 3 7 3 2 0 -10 -6 -26 13 -31 36 -10 12 10 12 9 2
-5 -9 -11 -10 -18 -2 -23 6 -3 7 -11 4 -17 -5 -8 -1 -9 10 -5 10 4 19 1 23 -9
3 -8 12 -13 19 -10 8 3 14 1 14 -5 0 -14 26 -39 39 -39 6 0 11 5 11 10 0 6 5
10 11 10 8 0 8 -4 1 -13 -7 -8 -6 -18 5 -32 11 -14 17 -16 20 -7 3 6 9 9 14 6
6 -4 6 -11 -1 -19 -10 -12 -8 -13 10 -10 18 4 20 2 9 -11 -7 -8 -8 -14 -3 -13
18 4 44 -13 37 -25 -4 -6 1 -5 10 3 15 12 17 12 11 -3 -6 -15 6 -21 30 -17 5
1 4 -5 -3 -13 -11 -13 -10 -15 7 -11 12 2 23 -3 26 -11 4 -9 11 -12 18 -8 9 5
8 2 -1 -9 -12 -15 -12 -17 3 -11 10 4 16 1 16 -7 0 -11 3 -11 11 1 9 13 10 13
6 -2 -6 -18 25 -52 38 -41 4 5 5 3 1 -4 -8 -14 27 -36 39 -25 5 4 5 2 2 -4 -4
-7 2 -14 13 -17 11 -3 19 -11 18 -18 -2 -7 3 -13 10 -14 6 0 12 -4 11 -8 -2
-16 55 -68 68 -62 11 3 11 0 2 -16 -7 -13 -7 -19 -1 -15 13 8 54 -43 45 -57
-4 -6 2 -8 15 -5 12 4 20 3 17 -2 -2 -4 4 -15 14 -24 10 -10 21 -14 23 -9 3 4
3 2 2 -5 -2 -7 3 -15 11 -18 8 -4 15 -13 15 -21 0 -8 5 -11 12 -7 6 4 8 3 4
-4 -3 -6 4 -19 17 -29 13 -10 26 -26 30 -36 3 -9 12 -16 19 -15 7 2 13 -4 13
-12 0 -8 6 -14 13 -13 6 2 9 -3 6 -11 -6 -16 24 -49 37 -40 5 3 9 2 8 -3 -4
-22 2 -34 14 -27 7 5 7 2 -2 -10 -12 -15 -12 -17 0 -14 8 2 13 -2 12 -9 -2 -6
5 -14 15 -17 22 -7 42 -51 31 -65 -6 -8 -5 -8 3 -1 13 11 35 14 25 4 -3 -4 1
-13 9 -21 8 -8 12 -19 9 -24 -4 -5 1 -9 9 -9 9 0 16 -5 16 -11 0 -5 4 -7 10
-4 5 3 7 0 4 -8 -3 -8 0 -18 5 -22 6 -3 9 -10 6 -15 -3 -5 4 -11 15 -15 11 -4
18 -10 15 -15 -3 -5 3 -13 12 -19 10 -6 14 -11 10 -11 -5 0 1 -13 13 -30 12
-16 18 -30 13 -30 -4 0 0 -5 9 -11 9 -5 15 -16 12 -23 -3 -8 0 -17 7 -22 8 -4
10 -3 5 4 -4 7 -5 12 -3 12 3 0 14 -16 26 -36 17 -28 19 -40 10 -57 -9 -20 -9
-20 4 -4 17 20 28 22 24 5 -1 -7 4 -12 11 -10 8 1 11 -2 7 -8 -3 -5 6 -30 21
-55 23 -39 24 -48 13 -63 -13 -15 -12 -16 3 -4 15 12 19 10 34 -22 10 -19 20
-34 23 -32 3 2 7 -7 7 -20 2 -26 28 -57 39 -46 5 4 5 2 2 -5 -10 -16 3 -44 16
-36 6 4 7 1 3 -6 -5 -7 -14 -10 -20 -8 -7 3 -13 -1 -13 -8 0 -7 6 -11 13 -8 8
3 21 -2 29 -11 9 -9 12 -16 6 -16 -6 0 -11 -5 -11 -11 0 -5 5 -7 10 -4 6 3 10
-1 10 -9 0 -9 5 -16 10 -16 7 0 7 -7 0 -20 -6 -11 -7 -20 -3 -19 20 3 34 -2
28 -11 -3 -5 -12 -7 -20 -3 -8 3 -15 0 -15 -5 0 -6 9 -9 20 -7 11 2 20 -1 20
-6 0 -6 4 -8 9 -5 5 3 9 0 8 -7 -1 -30 4 -48 11 -43 7 4 11 -12 12 -57 1 -9 5
-15 11 -12 5 4 9 -5 9 -19 0 -14 4 -26 8 -26 6 0 48 -102 58 -140 8 -32 28
-70 37 -70 7 0 4 -5 -5 -11 -10 -5 -18 -15 -18 -22 0 -7 4 -6 10 3 7 11 11 8
20 -15 8 -21 8 -31 1 -33 -6 -2 -11 -8 -11 -14 0 -6 6 -8 14 -5 10 4 22 -25
46 -106 18 -62 34 -119 35 -127 1 -8 6 -23 10 -34 5 -12 3 -21 -6 -27 -11 -7
-11 -9 3 -9 11 0 18 -12 23 -40 4 -22 6 -41 6 -42 0 -2 6 -25 14 -52 17 -56
20 -89 6 -68 -6 11 -10 10 -15 -4 -3 -9 -4 -19 -1 -22 3 -3 5 0 5 6 0 6 7 9
15 6 17 -7 21 -34 4 -34 -5 0 -7 5 -3 12 5 7 3 8 -6 3 -10 -6 -9 -11 6 -22 10
-8 20 -22 21 -31 2 -26 10 -74 18 -109 5 -22 4 -33 -4 -33 -6 0 -11 -4 -11
-10 0 -5 6 -9 13 -7 7 1 13 -10 14 -28 1 -16 5 -45 8 -63 3 -20 1 -31 -5 -27
-6 3 -10 2 -10 -4 0 -5 5 -11 10 -13 13 -4 19 -34 25 -130 4 -69 3 -78 -13
-79 -13 0 -14 -2 -2 -6 24 -9 30 -25 28 -71 -1 -34 -5 -42 -17 -37 -14 4 -14
4 -1 -7 21 -18 22 -61 1 -54 -12 5 -11 2 3 -9 17 -13 19 -29 19 -127 1 -183
-4 -227 -25 -223 -10 2 -18 -1 -18 -6 0 -5 8 -9 18 -7 14 3 17 -6 18 -51 2
-67 -3 -81 -24 -75 -15 5 -15 4 1 -6 18 -11 25 -46 7 -35 -5 3 -10 1 -10 -4 0
-6 5 -11 10 -11 6 0 10 -7 10 -16 0 -8 -4 -12 -10 -9 -5 3 -10 1 -10 -4 0 -6
5 -11 11 -11 6 0 7 -5 2 -12 -4 -7 -6 -21 -4 -32 1 -10 -3 -23 -11 -27 -10 -7
-10 -9 0 -9 6 0 12 -7 12 -16 0 -8 -4 -13 -9 -9 -5 3 -12 1 -16 -5 -3 -5 -2
-10 4 -10 6 0 8 -21 6 -52 -7 -81 -10 -91 -31 -99 -18 -7 -18 -8 1 -9 13 -1
15 -3 6 -7 -10 -4 -11 -7 -1 -13 13 -8 5 -30 -11 -30 -6 0 -8 4 -4 9 3 5 2 12
-3 15 -4 2 -8 -6 -8 -19 0 -14 5 -21 12 -18 13 5 13 0 0 -92 -7 -50 -26 -97
-26 -66 0 8 -3 11 -6 8 -4 -4 -1 -14 6 -23 8 -9 10 -18 4 -22 -5 -4 -11 -25
-12 -47 -2 -22 -11 -49 -20 -59 -12 -13 -12 -17 -3 -11 11 6 13 4 7 -11 -4
-10 -10 -30 -12 -44 -3 -14 -8 -34 -11 -45 -9 -25 -8 -22 -17 -68 -5 -20 -12
-40 -17 -43 -5 -3 -7 -10 -4 -15 4 -5 2 -9 -3 -9 -6 0 -10 -6 -9 -12 1 -45 -4
-58 -25 -59 -17 -1 -19 -2 -5 -6 20 -5 22 -14 5 -31 -7 -7 -8 -12 -3 -12 5 0
0 -7 -11 -16 -10 -8 -13 -12 -5 -8 11 5 13 3 8 -10 -4 -10 -10 -29 -13 -42 -3
-13 -14 -24 -23 -24 -11 0 -13 -3 -4 -8 10 -6 10 -15 1 -40 -14 -36 -29 -43
-23 -11 3 12 1 19 -2 15 -12 -12 -12 -40 0 -48 9 -6 9 -10 0 -16 -6 -4 -14
-20 -17 -35 -7 -42 -15 -50 -34 -35 -16 12 -16 11 -1 -7 14 -17 14 -25 4 -49
-9 -20 -14 -25 -18 -15 -4 8 -6 6 -4 -6 2 -11 -4 -26 -13 -33 -8 -8 -10 -11
-3 -7 9 4 10 -1 2 -25 -6 -16 -15 -30 -21 -30 -5 0 -6 -4 -3 -10 3 -5 -1 -10
-9 -10 -9 0 -16 -5 -16 -11 0 -5 5 -7 10 -4 6 4 5 -5 -2 -19 -10 -23 -19 -30
-39 -28 -3 1 -6 -6 -6 -13 0 -11 4 -12 14 -4 19 17 16 6 -19 -65 -17 -36 -35
-63 -40 -60 -4 3 -5 -1 -2 -9 2 -7 -8 -26 -23 -42 -15 -16 -22 -25 -15 -21 12
7 12 4 1 -15 -7 -13 -19 -30 -28 -37 -9 -8 -10 -10 -3 -7 11 6 12 3 3 -14 -7
-11 -15 -21 -20 -21 -4 0 -8 -6 -8 -12 0 -17 -70 -135 -86 -145 -7 -4 -12 -15
-12 -23 0 -8 -5 -14 -11 -13 -7 1 -11 -5 -10 -15 0 -9 -4 -16 -11 -15 -7 2
-10 -4 -7 -12 4 -8 2 -15 -2 -15 -5 0 -15 -14 -22 -30 -8 -17 -18 -30 -23 -30
-6 0 -7 5 -3 12 4 6 3 8 -4 5 -5 -4 -8 -16 -5 -27 3 -11 1 -20 -5 -20 -5 0
-12 -9 -15 -21 -3 -12 -10 -18 -16 -15 -5 4 -13 1 -17 -5 -4 -8 -3 -9 4 -5 7
4 12 3 12 -2 0 -14 -26 -33 -34 -25 -4 4 -4 0 -1 -9 4 -10 -2 -22 -17 -32 -12
-9 -19 -16 -14 -16 5 0 3 -7 -4 -15 -10 -12 -16 -13 -29 -3 -14 12 -15 11 -1
-6 13 -16 12 -20 -6 -35 -11 -9 -22 -20 -25 -26 -2 -5 -7 -9 -12 -7 -4 1 -6
-1 -5 -5 5 -17 -24 -54 -37 -49 -8 3 -17 0 -21 -6 -4 -7 -3 -8 4 -4 20 12 13
-22 -6 -36 -11 -7 -24 -23 -31 -36 -7 -14 -18 -21 -26 -18 -9 3 -12 0 -9 -8 3
-8 -26 -45 -64 -86 -39 -39 -72 -75 -73 -78 -2 -4 -7 -6 -12 -4 -4 1 -6 -4 -5
-10 2 -7 -4 -13 -12 -13 -8 0 -14 6 -12 13 1 8 -2 11 -8 7 -8 -5 -7 -11 1 -21
14 -17 -6 -48 -24 -37 -5 3 -7 2 -4 -4 8 -13 -47 -66 -58 -56 -4 5 -5 3 -2 -3
6 -10 -20 -37 -122 -128 -13 -11 -28 -20 -33 -18 -5 1 -7 -2 -4 -7 4 -5 -6
-19 -21 -30 -16 -11 -39 -31 -53 -44 -53 -50 -92 -77 -102 -71 -7 4 -8 2 -4
-4 8 -13 -82 -84 -95 -76 -5 3 -8 0 -7 -6 2 -7 -6 -17 -17 -23 -11 -7 -22 -14
-25 -17 -21 -23 -64 -49 -73 -43 -5 3 -7 1 -4 -4 8 -13 -160 -126 -174 -118
-5 4 -8 2 -7 -3 2 -6 -1 -10 -6 -10 -5 0 -12 -6 -16 -12 -4 -7 -13 -9 -19 -6
-6 4 -8 12 -5 18 4 7 2 8 -5 4 -9 -6 -9 -11 -1 -21 8 -10 -1 -20 -40 -44 -58
-36 -76 -41 -72 -23 1 8 -2 11 -7 7 -6 -3 -8 -12 -5 -20 6 -15 -48 -49 -60
-38 -3 4 -6 2 -6 -3 0 -13 -75 -55 -84 -47 -3 3 -6 2 -6 -4 0 -6 -7 -14 -16
-17 -8 -3 -13 -2 -10 2 3 5 -1 9 -8 9 -9 0 -12 -7 -8 -15 4 -11 1 -14 -12 -9
-9 4 -15 3 -12 -2 8 -12 -61 -44 -76 -35 -6 4 -8 3 -5 -3 6 -10 -79 -56 -97
-53 -5 1 -12 -3 -15 -8 -10 -17 -181 -83 -194 -76 -7 4 -8 3 -4 -1 4 -5 -25
-22 -65 -37 -55 -21 -74 -25 -80 -15 -6 9 -8 8 -8 -4 0 -16 -66 -43 -82 -33
-4 3 -8 0 -8 -7 0 -6 -8 -9 -20 -6 -11 3 -18 1 -14 -4 5 -8 0 -10 -38 -13 -7
-1 -16 -5 -20 -10 -4 -6 -13 -4 -22 4 -14 11 -16 10 -10 -4 7 -19 -16 -22 -35
-4 -10 11 -11 10 -6 -4 5 -12 -1 -18 -24 -23 -17 -3 -36 -3 -42 1 -8 5 -9 3
-4 -6 6 -10 4 -12 -8 -7 -9 3 -17 2 -19 -2 -2 -5 -19 -12 -38 -16 -30 -7 -33
-6 -22 8 9 10 10 17 2 22 -6 4 -9 1 -8 -7 2 -7 -2 -12 -9 -11 -7 2 -10 -3 -7
-10 5 -15 -90 -42 -108 -31 -6 4 -13 1 -17 -5 -4 -6 -29 -13 -54 -14 -26 -1
-47 -6 -47 -10 0 -5 -8 -7 -17 -6 -10 1 -26 -1 -36 -6 -10 -4 -24 -2 -34 6
-11 9 -14 10 -10 2 5 -8 -1 -15 -19 -19 -16 -4 -29 -2 -34 5 -5 10 -9 9 -13
-1 -6 -17 -185 -43 -218 -33 -15 5 -19 4 -14 -4 5 -9 -6 -12 -37 -12 -80 0
-198 -8 -206 -13 -7 -4 -175 -3 -384 2 -20 1 -39 6 -43 12 -3 5 -12 10 -18 10
-7 0 -6 -4 3 -10 14 -9 -120 -6 -215 5 -79 9 -141 15 -167 18 -14 1 -29 5 -32
8 -4 4 -20 5 -36 3 -17 -2 -30 0 -30 5 0 5 -9 7 -20 4 -30 -8 -72 5 -63 20 5
9 3 9 -8 1 -8 -6 -22 -10 -32 -8 -97 15 -157 28 -157 34 0 4 -11 6 -25 5 -18
-2 -25 2 -25 13 0 13 -2 14 -8 4 -7 -10 -19 -10 -60 -1 -29 7 -52 16 -52 21 0
5 -5 6 -10 3 -16 -10 -51 5 -44 18 5 8 3 8 -6 0 -11 -10 -19 -8 -39 10 -14 12
-20 15 -13 5 9 -11 10 -18 2 -23 -5 -3 -10 -1 -10 4 0 6 -7 11 -16 11 -8 0
-13 4 -10 8 6 10 -24 9 -41 -1 -8 -5 -11 -1 -8 13 2 11 0 20 -6 20 -5 0 -9 -5
-9 -11 0 -8 -4 -9 -13 0 -8 6 -17 8 -20 4 -4 -3 -7 -1 -7 6 0 7 -4 10 -9 7
-13 -8 -42 4 -36 14 3 5 0 12 -6 16 -7 4 -9 3 -6 -3 4 -6 -4 -13 -18 -15 -19
-4 -23 -2 -15 7 8 9 5 12 -12 11 -15 -1 -22 4 -20 14 2 11 -1 11 -12 -3 -13
-16 -14 -16 -20 -1 -4 9 -9 14 -12 11 -3 -3 -24 1 -46 9 -22 7 -45 11 -52 7
-6 -3 -8 -3 -4 2 10 10 -42 37 -59 31 -8 -4 -13 3 -13 17 0 18 -2 19 -10 7 -8
-12 -10 -12 -10 -1 0 11 -3 11 -17 0 -15 -13 -16 -12 -11 8 4 13 2 26 -3 29
-5 3 -8 0 -7 -7 2 -6 -9 -12 -24 -13 -14 -1 -25 1 -22 5 2 4 -10 12 -26 19
-16 7 -27 16 -24 21 3 5 -6 5 -21 -1 -24 -9 -25 -8 -14 11 9 17 8 20 -3 13
-18 -11 -38 -14 -38 -5 0 4 -31 22 -69 41 -38 19 -67 39 -64 44 4 5 1 6 -5 2
-6 -4 -30 3 -52 14 -22 11 -46 18 -52 14 -7 -4 -8 -3 -4 4 4 7 2 12 -4 12 -6
0 -8 5 -4 12 4 6 3 8 -4 4 -6 -3 -17 0 -25 8 -8 8 -18 12 -23 8 -5 -4 -8 -6
-7 -4 1 2 -4 10 -10 17 -9 9 -16 10 -25 2 -7 -6 -12 -6 -11 -1 3 18 -1 34 -9
32 -15 -5 -82 37 -78 48 2 6 -1 11 -7 11 -31 -1 -48 4 -43 11 3 5 -1 9 -9 10
-8 1 -22 3 -30 4 -8 1 -12 5 -9 10 3 4 0 8 -6 8 -6 0 -8 5 -4 12 4 6 3 8 -4 4
-6 -3 -18 1 -26 10 -9 8 -16 12 -16 7 -1 -4 -10 3 -21 17 -12 14 -23 24 -25
23 -8 -5 -34 9 -29 16 2 4 -2 8 -10 9 -8 1 -22 3 -29 4 -8 1 -14 6 -13 12 1 6
-6 10 -15 10 -11 -1 -15 5 -13 17 2 12 -1 16 -10 13 -7 -3 -16 0 -20 5 -3 6
-12 8 -18 5 -7 -4 -9 -4 -5 1 10 10 -63 65 -76 58 -5 -4 -6 -1 -3 4 4 6 -1 14
-10 17 -15 6 -15 8 -3 17 13 9 13 10 0 6 -8 -2 -29 6 -46 19 -17 13 -35 20
-40 16 -5 -4 -3 0 4 10 10 12 10 18 1 24 -8 4 -9 3 -5 -4 4 -7 3 -12 -2 -12
-13 0 -33 25 -27 33 3 4 2 5 -1 2 -12 -8 -45 16 -37 28 4 7 -2 5 -12 -3 -10
-8 -16 -10 -12 -3 4 6 3 14 -3 18 -6 4 -8 10 -5 15 3 5 -4 7 -15 5 -11 -2 -18
0 -15 6 6 8 -8 13 -28 10 -5 -1 -5 3 -2 10 4 6 -3 17 -15 26 -12 8 -19 21 -16
29 3 7 0 16 -6 20 -7 4 -8 3 -4 -4 4 -7 3 -12 -3 -12 -5 0 -13 5 -16 10 -4 6
-11 7 -17 4 -7 -4 -8 -2 -4 4 3 6 -3 16 -15 23 -13 6 -33 24 -47 40 -13 16
-28 26 -33 23 -12 -7 -7 19 6 29 6 5 3 7 -7 3 -10 -3 -20 -1 -23 5 -4 5 -11 6
-17 3 -6 -4 -8 -2 -4 4 3 6 2 13 -4 17 -6 4 -8 11 -4 16 3 5 10 6 16 3 7 -5 8
-2 3 5 -5 9 -11 9 -17 3 -7 -7 -24 5 -53 36 -24 26 -39 50 -33 53 5 4 3 9 -7
12 -9 4 -13 3 -10 -3 3 -6 1 -10 -4 -10 -6 0 -11 5 -11 11 0 5 -4 8 -8 5 -13
-8 -11 28 2 37 6 4 0 5 -14 3 -14 -2 -24 -9 -22 -16 1 -6 -2 -9 -8 -5 -8 5 -7
12 2 23 11 12 11 16 0 20 -10 3 -10 7 0 20 10 14 10 15 -2 4 -18 -15 -30 -15
-30 1 -1 21 -49 69 -63 60 -6 -4 -4 5 5 19 13 19 15 29 6 34 -6 4 -8 3 -4 -4
3 -6 2 -13 -3 -16 -5 -4 -12 -2 -16 4 -4 6 -10 8 -15 5 -10 -6 -8 15 4 34 6
10 5 12 -2 7 -11 -7 -50 13 -48 24 2 13 -87 119 -96 114 -6 -4 -8 2 -3 15 5
15 2 21 -9 21 -9 0 -15 3 -14 8 2 4 -12 28 -30 54 -22 32 -28 48 -19 51 6 3 2
6 -9 6 -19 1 -38 30 -35 54 1 6 -14 11 -31 8 -4 0 -5 5 -2 13 3 8 0 17 -5 21
-6 3 -9 11 -6 16 4 5 -1 9 -9 9 -9 0 -15 6 -14 13 2 6 -2 11 -9 10 -7 -2 -10
3 -7 11 3 8 -4 24 -15 35 -13 13 -16 21 -9 21 10 0 10 2 0 8 -7 5 -10 17 -6
28 4 14 3 15 -4 5 -12 -16 -27 3 -16 21 4 6 3 8 -3 5 -13 -8 -26 20 -16 35 3
7 1 8 -5 4 -7 -4 -17 3 -24 18 -6 14 -14 26 -18 26 -4 0 -7 6 -7 13 -1 34 -30
80 -45 71 -4 -3 -5 2 -2 10 4 10 1 16 -7 16 -7 0 -9 3 -6 7 4 3 0 17 -9 31
-13 20 -14 26 -3 33 13 8 5 13 -13 10 -5 0 -8 4 -8 10 0 5 -4 8 -9 5 -5 -4 -7
4 -4 16 4 17 2 19 -5 9 -8 -11 -10 -9 -11 10 -1 41 -4 59 -11 59 -4 0 -15 21
-25 46 -10 25 -21 41 -24 35 -5 -7 -13 -3 -25 10 -17 20 -17 21 3 14 12 -4 21
-2 21 4 0 6 -3 10 -7 10 -27 -4 -40 10 -44 46 0 6 -5 15 -10 22 -7 7 -6 14 1
18 6 4 9 1 8 -6 -2 -6 4 -14 12 -16 13 -4 13 -3 0 6 -8 6 -11 11 -7 11 5 0 5
6 0 13 -4 6 -9 21 -10 32 -2 10 -9 23 -16 27 -6 4 -8 8 -3 8 5 0 3 6 -3 13 -6
8 -8 16 -5 20 3 3 -6 4 -20 3 -14 -2 -23 1 -20 5 3 5 13 9 22 10 11 0 12 3 5
6 -7 2 -13 9 -13 14 0 6 6 7 13 3 9 -6 8 -3 -1 8 -8 9 -21 14 -30 12 -14 -5
-13 -2 2 10 19 16 19 16 -1 16 -27 0 -38 16 -17 24 8 3 12 2 9 -4 -3 -6 -1
-10 4 -10 14 0 14 17 1 25 -6 4 -8 10 -5 15 3 5 1 11 -5 15 -6 4 -7 11 -4 17
4 6 -2 8 -17 4 -13 -3 -18 -3 -11 0 6 3 10 10 6 15 -3 5 1 9 8 9 7 1 0 7 -17
14 -25 10 -26 13 -12 19 12 5 16 3 11 -5 -4 -7 -3 -8 4 -4 21 13 12 26 -14 22
-19 -4 -23 -2 -16 7 6 8 6 21 -1 37 -5 14 -12 34 -14 45 -2 11 -8 21 -13 23
-5 2 -3 10 5 19 16 16 20 43 7 43 -5 0 -8 10 -8 23 1 15 -4 21 -15 19 -9 -1
-16 4 -16 13 0 8 4 12 8 9 4 -2 10 0 14 6 3 5 2 10 -4 10 -5 0 -8 10 -6 21 3
12 1 18 -3 15 -4 -4 -7 -13 -7 -18 0 -6 -7 -13 -15 -15 -9 -3 -11 -1 -5 4 22
18 26 85 5 90 -9 3 -11 1 -5 -4 14 -11 17 -40 6 -47 -5 -4 -10 2 -9 11 0 10
-3 28 -5 40 -3 13 -1 26 5 29 7 4 8 2 4 -4 -4 -7 -2 -12 3 -12 13 0 13 7 1 35
-7 17 -9 17 -9 3 -1 -10 -5 -18 -11 -18 -5 0 -9 10 -9 23 1 12 -1 32 -4 44 -3
13 -2 25 2 28 5 2 8 -3 8 -13 0 -33 3 -42 14 -42 6 0 7 5 2 13 -4 6 -9 21 -10
32 -1 11 -5 34 -8 50 -3 17 -6 42 -6 58 0 15 -4 27 -9 27 -4 0 -6 14 -3 31 2
18 1 29 -5 25 -7 -4 -9 -61 -2 -61 1 0 4 -12 6 -27 1 -16 -1 -28 -6 -28 -6 0
-9 10 -9 23 0 12 -3 38 -7 57 -4 19 -8 51 -8 70 0 19 -5 39 -11 43 -6 5 -4 7
5 4 10 -2 15 -15 13 -41 -1 -43 6 -42 13 2 3 17 1 33 -5 36 -5 4 -8 22 -5 41
2 19 0 35 -6 35 -5 0 -7 -7 -4 -15 4 -8 2 -15 -3 -15 -11 0 -12 6 -17 77 -1
29 -6 56 -9 60 -11 10 -8 35 3 28 6 -4 8 -10 5 -15 -3 -5 -1 -11 3 -14 5 -3 8
-26 7 -51 -2 -25 0 -45 4 -45 6 0 8 77 2 90 -9 19 -8 46 2 53 7 5 4 6 -9 3
-18 -5 -21 -2 -21 26 0 18 -4 42 -8 53 l-7 20 17 -20 c9 -12 14 -29 10 -42 -3
-14 -1 -23 6 -23 7 0 9 11 4 32 -3 18 -7 45 -7 61 -1 15 -5 27 -10 27 -5 0 -7
-4 -3 -9 3 -5 2 -12 -2 -14 -5 -3 -8 39 -8 93 -1 54 3 96 7 94 5 -3 6 -10 3
-15 -4 -5 -1 -9 5 -9 7 0 9 7 6 16 -3 9 -6 20 -6 25 0 4 -8 6 -17 3 -15 -5
-15 -4 -4 4 16 11 28 68 13 58 -5 -3 -9 1 -9 9 0 8 5 12 11 9 6 -3 2 2 -9 12
-17 14 -17 16 -3 11 12 -4 18 -1 18 7 0 8 3 21 6 30 3 9 1 16 -6 16 -6 0 -9
-4 -6 -8 2 -4 0 -14 -6 -22 -8 -12 -9 -12 -4 3 3 10 0 17 -7 18 -7 0 -8 2 -1
5 5 2 9 19 7 37 -4 38 -4 44 1 77 2 14 -1 31 -7 38 -6 8 -6 12 3 12 7 0 10 7
6 16 -3 8 -2 13 3 10 5 -3 12 1 15 10 4 12 2 15 -9 10 -12 -4 -13 -2 -7 12 5
9 7 30 5 45 -2 16 0 26 5 23 5 -3 8 -19 7 -36 -1 -16 1 -30 5 -30 5 0 7 27 7
59 -1 33 -5 57 -9 55 -11 -7 -16 20 -7 38 5 10 5 19 0 23 -6 3 -5 15 3 29 7
14 11 38 10 54 -1 23 2 29 12 25 8 -3 15 -1 15 3 6 37 5 55 -2 59 -4 3 -6 -6
-3 -21 3 -18 1 -25 -8 -22 -17 6 -17 28 -2 51 8 12 9 29 4 47 -6 22 -5 28 5
23 9 -3 12 -16 10 -34 -2 -16 0 -27 5 -24 5 3 8 19 6 36 -2 16 0 32 5 35 12 7
11 24 -2 24 -5 0 -8 -4 -4 -9 3 -5 1 -12 -4 -16 -6 -3 -8 4 -6 16 3 13 -1 29
-7 36 -9 11 -8 13 3 11 8 -2 13 3 11 10 -1 8 2 11 8 7 8 -5 8 -11 0 -20 -8
-10 -8 -15 1 -21 7 -4 9 -3 5 4 -3 6 -2 13 3 17 13 7 10 43 -4 41 -5 -2 -7 -1
-3 1 3 2 5 15 2 28 -2 13 1 27 6 30 7 4 9 -3 6 -19 -3 -14 -1 -26 4 -26 5 0 8
8 8 18 0 9 3 25 7 35 4 10 3 17 -5 17 -6 0 -8 -4 -5 -10 3 -6 -1 -7 -10 -3 -9
3 -13 9 -8 12 4 3 10 13 12 21 7 30 9 45 10 58 1 6 6 12 12 12 5 0 7 -4 4 -10
-3 -5 -1 -10 4 -10 15 0 7 40 -10 51 -11 7 -11 9 -1 9 7 0 10 5 6 12 -4 7 -3
8 5 4 6 -4 9 -12 6 -17 -4 -5 -1 -9 5 -9 8 0 9 7 5 18 -16 38 -18 55 -6 48 6
-4 9 -12 6 -17 -4 -5 -1 -9 5 -9 7 0 9 8 5 20 -4 12 -2 20 5 20 7 0 10 7 7 15
-4 8 -3 16 1 19 4 2 7 29 6 59 -2 45 1 54 14 53 9 0 17 4 17 11 0 6 3 15 8 19
4 4 7 12 7 18 0 5 -6 1 -14 -9 -8 -11 -12 -24 -9 -29 4 -5 1 -6 -5 -2 -8 5 -9
13 -2 25 5 10 6 21 3 25 -3 3 -1 6 5 6 6 0 9 9 7 20 -3 13 0 18 7 14 7 -5 9
-2 5 8 -3 9 0 21 6 27 8 8 7 11 -4 11 -10 1 -9 3 4 11 9 6 14 15 11 21 -4 6 6
22 22 35 21 17 24 22 9 17 -17 -5 -16 -2 5 17 14 13 18 20 9 16 -13 -4 -16 -1
-12 14 3 10 10 19 15 19 5 0 6 -5 2 -12 -5 -7 -3 -8 5 -3 9 5 10 10 2 18 -6 6
-7 17 -2 26 9 16 11 23 11 41 0 6 6 10 14 10 8 0 18 5 22 12 5 8 2 9 -9 5 -9
-3 -19 -2 -22 4 -4 5 -3 9 2 8 19 -3 25 2 14 14 -8 10 -7 14 4 14 8 0 15 -5
15 -11 0 -6 5 -4 10 4 5 8 10 20 10 25 0 6 -5 3 -10 -5 -14 -21 -13 5 1 31 11
22 19 52 22 84 2 14 9 20 24 19 19 0 20 2 11 19 -9 17 -8 19 8 13 16 -6 16 -5
-2 15 -10 12 -14 19 -7 16 7 -4 14 1 18 14 4 13 12 18 22 15 14 -6 13 -3 -1
19 -15 23 -15 24 1 18 12 -5 15 -2 10 10 -5 13 -1 17 16 17 18 0 19 2 7 10
-12 8 -12 10 5 10 13 0 16 3 8 8 -8 5 -9 13 -3 22 8 13 10 13 10 1 0 -8 3 -11
6 -8 4 4 1 13 -6 22 -12 15 -4 21 23 16 5 -1 6 3 2 9 -10 16 28 90 43 85 7 -3
10 0 6 6 -3 6 2 28 11 49 12 27 22 37 34 34 9 -3 5 2 -9 11 -14 9 -17 14 -8
11 9 -3 19 2 22 10 3 9 10 13 15 9 5 -3 13 0 17 6 4 8 3 9 -4 5 -16 -10 -15
-3 5 41 19 40 32 55 44 47 4 -2 11 1 15 7 4 8 3 9 -4 5 -14 -8 -15 -4 -6 18 3
9 10 14 14 11 5 -3 7 6 6 19 -2 17 1 23 10 19 9 -3 14 2 14 14 0 11 8 30 19
41 19 23 37 30 25 10 -4 -7 -3 -8 5 -4 9 6 9 11 0 23 -11 12 -10 14 6 11 14
-2 20 3 21 19 1 27 23 55 35 47 5 -3 9 0 9 5 0 6 -6 11 -12 12 -7 1 -2 4 11 8
14 4 26 13 29 21 3 13 2 13 -7 0 -8 -12 -10 -11 -8 7 0 12 5 19 9 17 4 -3 8 0
8 5 0 6 5 11 11 11 5 0 7 -5 3 -12 -4 -7 -3 -8 5 -4 6 4 10 15 9 24 -2 9 2 17
9 17 10 0 61 56 56 62 -7 8 -2 23 6 19 5 -3 15 2 22 11 10 12 10 14 2 9 -7 -4
-13 -2 -13 3 0 6 5 11 11 11 5 0 8 4 5 9 -3 5 1 12 10 15 8 3 13 10 9 15 -3 5
4 16 15 24 11 7 17 18 12 23 -4 4 0 3 9 -4 13 -10 19 -9 28 2 9 11 9 16 0 22
-8 5 -9 3 -4 -6 5 -9 4 -11 -4 -6 -6 4 -9 12 -5 17 3 5 9 7 13 4 5 -2 26 11
47 31 22 19 33 33 27 29 -19 -9 -16 10 4 26 14 12 16 12 8 0 -5 -10 -4 -12 4
-7 6 4 9 12 6 17 -4 5 1 9 10 9 9 0 13 5 10 10 -4 6 -11 7 -17 4 -6 -4 -8 -2
-4 4 3 6 15 9 25 7 11 -2 29 7 42 22 13 15 18 23 10 18 -9 -5 -12 -3 -9 6 3 8
11 13 17 12 10 -3 15 10 12 29 0 5 2 7 7 6 11 -4 62 33 62 44 0 6 -8 4 -17 -3
-16 -12 -16 -11 0 8 11 13 25 19 35 16 10 -4 13 -2 8 5 -4 7 -1 12 8 12 9 0
16 4 16 9 0 5 -10 7 -23 5 -12 -2 -6 1 13 8 45 15 45 15 31 32 -8 10 -9 16 -1
21 6 4 9 1 8 -5 -2 -7 5 -14 14 -15 20 -4 86 65 83 86 -2 11 4 15 21 13 16 -1
32 9 55 37 17 21 35 37 39 34 4 -3 15 6 24 20 21 32 20 41 -1 24 -16 -13 -17
-12 -4 4 11 14 17 15 28 5 12 -10 18 -9 29 7 8 11 13 24 10 31 -2 6 2 11 10
11 8 0 14 -5 14 -10 0 -5 7 -4 15 3 8 7 15 18 15 25 0 7 8 12 17 11 10 0 18 7
20 19 1 11 0 14 -3 8 -3 -7 -10 -13 -16 -13 -6 0 -5 6 2 15 9 11 16 13 24 5
17 -17 25 -12 40 24 11 26 19 33 37 32 36 -3 52 12 37 33 -12 14 -11 15 6 1
15 -11 20 -12 23 -2 3 6 10 12 17 12 7 0 21 8 32 18 10 9 32 23 47 31 15 8 26
20 23 27 -3 8 0 11 8 8 13 -5 154 78 167 98 3 5 9 9 13 8 12 -4 106 51 106 61
0 6 5 7 10 4 7 -4 9 3 6 19 -3 15 -1 24 5 21 5 -4 7 -10 4 -15 -3 -5 -1 -11 5
-15 5 -3 10 -1 10 6 0 7 3 10 6 6 4 -3 19 0 35 8 20 11 27 20 23 33 -5 14 -4
14 5 2 5 -8 13 -11 17 -7 4 3 1 13 -6 22 -7 8 -8 15 -2 15 5 0 12 -6 15 -14 5
-12 24 -6 96 27 73 34 90 45 85 59 -4 13 0 18 13 17 10 0 13 -3 5 -6 -6 -2
-10 -9 -7 -13 10 -17 36 2 30 21 -4 11 -2 19 4 19 6 0 10 -3 10 -7 -3 -19 3
-21 31 -12 17 6 30 15 30 21 0 5 5 6 10 3 6 -3 10 -2 10 3 0 6 6 9 13 8 23 -2
117 38 117 51 0 7 5 13 11 13 5 0 7 -5 3 -12 -5 -8 -2 -9 12 -4 10 5 38 15 62
23 23 8 42 19 42 25 0 5 4 7 8 4 14 -8 82 16 75 27 -3 6 -1 7 5 3 9 -6 207 46
272 71 8 3 26 7 39 9 13 2 31 6 40 10 9 4 23 8 31 9 63 8 100 18 100 26 0 6 5
7 11 4 18 -12 55 4 67 27 l12 23 -6 -22 c-3 -13 -1 -23 5 -23 6 0 11 4 11 8 0
5 14 6 31 4 20 -3 29 -1 26 5 -4 6 3 8 18 5 14 -2 33 -1 42 3 10 5 22 7 27 6
6 -1 21 0 34 4 21 5 22 8 11 23 -12 15 -12 15 7 0 22 -20 50 -23 59 -9 3 5 20
7 39 4 27 -4 37 -1 51 18 13 18 16 19 11 5 -6 -17 -2 -18 46 -12 29 4 118 9
198 11 80 3 161 8 180 12 19 3 42 5 51 4 9 -1 22 5 29 14 15 19 21 19 14 1z
m111 4 c-3 -5 -12 -10 -18 -10 -7 0 -6 4 3 10 19 12 23 12 15 0z m59 -6 c3 -8
2 -12 -4 -9 -6 3 -10 10 -10 16 0 14 7 11 14 -7z m109 1 c-3 -9 -8 -14 -10
-11 -3 3 -2 9 2 15 9 16 15 13 8 -4z m-606 -11 c-3 -3 -12 -4 -19 -1 -8 3 -5
6 6 6 11 1 17 -2 13 -5z m743 -4 c0 -5 -2 -10 -4 -10 -3 0 -8 5 -11 10 -3 6
-1 10 4 10 6 0 11 -4 11 -10z m-1055 -20 c-3 -5 -12 -10 -18 -10 -7 0 -6 4 3
10 19 12 23 12 15 0z m1226 -8 c-7 -2 -18 1 -23 6 -8 8 -4 9 13 5 13 -4 18 -8
10 -11z m-1336 -1 c3 -6 -5 -15 -17 -21 -21 -10 -21 -10 -6 3 10 8 15 17 11
20 -3 4 -4 7 0 7 3 0 8 -4 12 -9z m1460 0 c3 -5 2 -12 -3 -15 -5 -3 -9 1 -9 9
0 17 3 19 12 6z m-1555 -31 c0 -5 -2 -10 -4 -10 -3 0 -8 5 -11 10 -3 6 -1 10
4 10 6 0 11 -4 11 -10z m-100 -20 c0 -5 -2 -10 -4 -10 -3 0 -8 5 -11 10 -3 6
-1 10 4 10 6 0 11 -4 11 -10z m-120 -20 c0 -5 -5 -10 -11 -10 -5 0 -7 5 -4 10
3 6 8 10 11 10 2 0 4 -4 4 -10z m2105 0 c-3 -5 -12 -10 -18 -10 -7 0 -6 4 3
10 19 12 23 12 15 0z m-2145 -20 c0 -5 -5 -10 -11 -10 -5 0 -7 5 -4 10 3 6 8
10 11 10 2 0 4 -4 4 -10z m-90 -20 c-8 -5 -19 -10 -25 -10 -5 0 -3 5 5 10 8 5
20 10 25 10 6 0 3 -5 -5 -10z m-85 -28 c-3 -3 -11 0 -18 7 -9 10 -8 11 6 5 10
-3 15 -9 12 -12z m2572 3 c0 -8 -4 -12 -9 -9 -5 3 -6 10 -3 15 9 13 12 11 12
-6z m-2602 -13 c-3 -3 -11 0 -18 7 -9 10 -8 11 6 5 10 -3 15 -9 12 -12z m-35
-2 c0 -5 -2 -10 -4 -10 -3 0 -8 5 -11 10 -3 6 -1 10 4 10 6 0 11 -4 11 -10z
m-25 -10 c3 -6 -1 -7 -9 -4 -18 7 -21 14 -7 14 6 0 13 -4 16 -10z m-35 -11 c0
-5 -4 -7 -10 -4 -5 3 -10 1 -10 -6 0 -7 -3 -10 -6 -6 -8 7 4 27 17 27 5 0 9
-5 9 -11z m-83 -31 c-3 -8 -6 -5 -6 6 -1 11 2 17 5 13 3 -3 4 -12 1 -19z m-57
-2 c0 -3 -4 -8 -10 -11 -5 -3 -10 -1 -10 4 0 6 5 11 10 11 6 0 10 -2 10 -4z
m-26 -24 c2 -4 -5 -9 -17 -9 -17 -2 -19 0 -7 7 18 12 18 12 24 2z m3146 -2 c0
-5 -5 -10 -11 -10 -5 0 -7 5 -4 10 3 6 8 10 11 10 2 0 4 -4 4 -10z m-3190 -14
c0 -2 -7 -7 -16 -10 -8 -3 -12 -2 -9 4 6 10 25 14 25 6z m3250 0 c0 -3 -4 -8
-10 -11 -5 -3 -10 -1 -10 4 0 6 5 11 10 11 6 0 10 -2 10 -4z m-3323 -21 c0 -8
-4 -12 -9 -9 -5 3 -6 10 -3 15 9 13 12 11 12 -6z m-39 -16 c-2 -6 -7 -10 -12
-9 -5 1 -13 -4 -18 -12 -8 -10 -9 -10 -5 2 2 8 10 14 16 13 6 -2 11 2 11 7 0
6 3 10 6 10 3 0 4 -5 2 -11z m3482 -3 c0 -2 -7 -7 -16 -10 -8 -3 -12 -2 -9 4
6 10 25 14 25 6z m-3536 -22 c3 -8 2 -12 -4 -9 -6 3 -10 10 -10 16 0 14 7 11
14 -7z m3734 -89 c-3 -3 -9 2 -12 12 -6 14 -5 15 5 6 7 -7 10 -15 7 -18z
m-3929 -8 c0 -9 -2 -8 -6 1 -2 6 -10 9 -15 6 -7 -4 -8 -2 -4 5 9 13 26 5 25
-12z m-54 -25 c-3 -3 -11 0 -18 7 -9 10 -8 11 6 5 10 -3 15 -9 12 -12z m5064
-66 c-3 -3 -11 5 -18 17 -13 21 -12 21 5 5 10 -10 16 -20 13 -22z m-5199 4 c0
-5 -4 -10 -10 -10 -5 0 -10 5 -10 10 0 6 5 10 10 10 6 0 10 -4 10 -10z m4400
-34 c0 -3 -4 -8 -10 -11 -5 -3 -10 -1 -10 4 0 6 5 11 10 11 6 0 10 -2 10 -4z
m886 -28 l19 -23 -25 20 c-14 11 -27 21 -29 22 -2 2 0 3 6 3 5 0 18 -10 29
-22z m-5409 -3 c0 -8 -4 -15 -9 -15 -10 0 -11 14 -1 23 9 10 10 9 10 -8z
m4568 5 c3 -6 -1 -7 -9 -4 -18 7 -21 14 -7 14 6 0 13 -4 16 -10z m-4611 -35
c-10 -8 -23 -14 -29 -14 -5 0 -4 3 3 6 6 2 9 10 6 15 -4 6 -2 8 4 4 6 -3 14
-1 17 5 4 5 10 8 13 5 3 -4 -3 -13 -14 -21z m5520 -21 c3 -8 2 -12 -4 -9 -6 3
-10 10 -10 16 0 14 7 11 14 -7z m-5579 -4 c3 -5 1 -10 -4 -10 -6 0 -11 5 -11
10 0 6 2 10 4 10 3 0 8 -4 11 -10z m-44 -43 c-8 -8 -14 -7 -23 2 -11 10 -9 11
6 5 15 -6 17 -4 11 6 -6 9 -4 11 4 5 9 -5 10 -10 2 -18z m4882 -2 c-3 -9 -8
-14 -10 -11 -3 3 -2 9 2 15 9 16 15 13 8 -4z m-4913 -9 c0 -3 -4 -8 -10 -11
-5 -3 -10 -1 -10 4 0 6 5 11 10 11 6 0 10 -2 10 -4z m-100 -65 c0 -6 -4 -12
-8 -15 -5 -3 -9 1 -9 9 0 8 4 15 9 15 4 0 8 -4 8 -9z m-57 -42 c-8 -8 -13 -7
-18 2 -6 8 -4 10 5 4 10 -6 12 -4 6 11 -6 15 -5 17 5 7 9 -10 10 -16 2 -24z
m-23 -13 c0 -2 -9 -6 -20 -9 -11 -3 -18 -1 -14 4 5 9 34 13 34 5z m6090 -40
c0 -3 -4 -8 -10 -11 -5 -3 -10 -1 -10 4 0 6 5 11 10 11 6 0 10 -2 10 -4z m35
-34 c-3 -3 -11 0 -18 7 -9 10 -8 11 6 5 10 -3 15 -9 12 -12z m-6265 -32 c0 -5
-2 -10 -4 -10 -3 0 -8 5 -11 10 -3 6 -1 10 4 10 6 0 11 -4 11 -10z m5601 -17
c13 -16 12 -17 -3 -4 -10 7 -18 15 -18 17 0 8 8 3 21 -13z m-5684 -32 c0 -11
-5 -18 -9 -15 -4 3 -5 11 -1 19 7 21 12 19 10 -4z m6423 9 c0 -5 -5 -10 -11
-10 -5 0 -7 5 -4 10 3 6 8 10 11 10 2 0 4 -4 4 -10z m40 -50 c0 -5 -2 -10 -4
-10 -3 0 -8 5 -11 10 -3 6 -1 10 4 10 6 0 11 -4 11 -10z m-6630 -104 c0 -2 -7
-7 -16 -10 -8 -3 -12 -2 -9 4 6 10 25 14 25 6z m-25 -28 c5 4 5 1 1 -6 -6 -10
-11 -10 -22 -1 -8 6 -14 14 -14 16 0 3 6 0 13 -6 8 -6 18 -7 22 -3z m6785 2
c0 -5 -2 -10 -4 -10 -3 0 -8 5 -11 10 -3 6 -1 10 4 10 6 0 11 -4 11 -10z
m-6850 -54 c0 -3 -4 -8 -10 -11 -5 -3 -10 -1 -10 4 0 6 5 11 10 11 6 0 10 -2
10 -4z m6924 -25 c14 -15 15 -21 4 -27 -7 -4 -10 -3 -5 1 4 5 0 17 -10 27 -9
10 -14 18 -11 18 3 0 13 -9 22 -19z m-6950 0 c3 -4 -3 -16 -13 -26 -20 -17
-24 -4 -8 23 10 14 14 15 21 3z m7001 -50 c3 -5 2 -12 -3 -15 -5 -3 -9 1 -9 9
0 17 3 19 12 6z m25 -25 c0 -2 -7 -7 -16 -10 -8 -3 -12 -2 -9 4 6 10 25 14 25
6z m18 -41 c-3 -3 -9 2 -12 12 -6 14 -5 15 5 6 7 -7 10 -15 7 -18z m-598 -25
c0 -5 -5 -10 -11 -10 -5 0 -7 5 -4 10 3 6 8 10 11 10 2 0 4 -4 4 -10z m665
-60 c3 -6 -1 -7 -9 -4 -18 7 -21 14 -7 14 6 0 13 -4 16 -10z m-7356 -56 c-6
-7 -15 -11 -21 -8 -5 3 -4 12 3 20 6 7 15 11 21 8 5 -3 4 -12 -3 -20z m7426
-4 c3 -5 1 -10 -4 -10 -6 0 -11 5 -11 10 0 6 2 10 4 10 3 0 8 -4 11 -10z m20
-30 c3 -6 -1 -7 -9 -4 -18 7 -21 14 -7 14 6 0 13 -4 16 -10z m25 -29 c0 -6 -4
-12 -8 -15 -5 -3 -9 1 -9 9 0 8 4 15 9 15 4 0 8 -4 8 -9z m21 -36 c5 4 6 -1 2
-10 -5 -13 -7 -14 -14 -3 -5 7 -8 18 -8 23 0 6 3 4 6 -3 2 -6 9 -10 14 -7z
m-7591 -10 c-7 -9 -15 -13 -19 -10 -3 3 1 10 9 15 21 14 24 12 10 -5z m-30
-15 c0 -5 -5 -10 -11 -10 -5 0 -7 5 -4 10 3 6 8 10 11 10 2 0 4 -4 4 -10z
m7695 -79 c3 -5 0 -13 -6 -17 -7 -4 -9 -3 -5 4 3 5 0 13 -6 15 -9 4 -10 6 -1
6 6 1 14 -3 18 -8z m25 -42 c0 -5 -4 -9 -8 -9 -5 0 -9 7 -9 15 0 8 4 12 9 9 4
-3 8 -9 8 -15z m-7888 -104 c-9 -13 -21 -20 -26 -17 -5 3 -1 11 8 18 10 7 15
17 11 23 -3 7 0 8 9 5 14 -5 13 -9 -2 -29z m7965 -22 c1 -24 0 -25 -6 -8 -7
17 -6 35 2 35 2 0 3 -12 4 -27z m60 -90 c1 -24 0 -25 -6 -8 -7 17 -6 35 2 35
2 0 3 -12 4 -27z m35 -65 c-7 -7 -12 -8 -12 -2 0 14 12 26 19 19 2 -3 -1 -11
-7 -17z m-8202 -18 c0 -5 -2 -10 -4 -10 -3 0 -8 5 -11 10 -3 6 -1 10 4 10 6 0
11 -4 11 -10z m8260 -44 c0 -2 -7 -7 -16 -10 -8 -3 -12 -2 -9 4 6 10 25 14 25
6z m4 -46 c-6 -6 -10 -3 -10 10 0 13 4 16 10 10 7 -7 7 -13 0 -20z m26 -10 c0
-5 -5 -10 -11 -10 -5 0 -7 5 -4 10 3 6 8 10 11 10 2 0 4 -4 4 -10z m14 -28 c2
-4 -4 -8 -14 -8 -10 0 -16 4 -14 8 3 4 9 8 14 8 5 0 11 -4 14 -8z m19 -53 c-8
-8 -13 -7 -18 2 -6 8 -4 10 5 4 10 -6 12 -4 6 11 -6 15 -5 17 5 7 9 -10 10
-16 2 -24z m9 -41 c-8 -8 -9 -4 -5 13 4 13 8 18 11 10 2 -7 -1 -18 -6 -23z
m43 -66 c-3 -3 -11 0 -18 7 -9 10 -8 11 6 5 10 -3 15 -9 12 -12z m27 -46 c7 4
8 2 4 -5 -9 -13 -26 -5 -25 12 0 9 2 8 6 -1 2 -6 10 -9 15 -6z m23 -37 c-4 -5
-12 -9 -18 -8 -9 0 -8 2 1 6 6 2 9 10 6 15 -4 7 -2 8 5 4 6 -4 9 -12 6 -17z
m26 -92 c-10 -9 -11 -8 -5 6 3 10 9 15 12 12 3 -3 0 -11 -7 -18z m16 -14 c-4
-3 0 -11 8 -17 11 -8 12 -15 4 -26 -9 -13 -10 -13 -6 2 3 9 -1 19 -9 22 -14 5
-11 26 3 26 4 0 3 -3 0 -7z m48 -101 c-3 -3 -11 0 -18 7 -9 10 -8 11 6 5 10
-3 15 -9 12 -12z m12 -26 c-4 -9 1 -17 11 -20 13 -4 13 -4 -2 -3 -19 2 -33 37
-14 37 6 0 8 -6 5 -14z m40 -116 c-2 -23 -10 -17 -12 10 -1 10 2 17 6 14 4 -2
7 -13 6 -24z m25 -27 c-6 -2 -10 -9 -7 -13 3 -5 1 -11 -4 -14 -7 -5 -8 11 -2
32 1 1 7 2 14 1 9 0 9 -2 -1 -6z m14 -38 c-1 -8 -5 -17 -8 -21 -5 -4 -4 16 1
34 3 9 9 -1 7 -13z m9 -35 c-3 -5 -12 -10 -18 -10 -7 0 -6 4 3 10 19 12 23 12
15 0z m35 -74 c0 -3 -4 -8 -10 -11 -5 -3 -10 -1 -10 4 0 6 5 11 10 11 6 0 10
-2 10 -4z m5 -26 c-3 -5 -12 -10 -18 -10 -7 0 -6 4 3 10 19 12 23 12 15 0z
m22 -46 c-3 -3 -12 -4 -19 -1 -8 3 -5 6 6 6 11 1 17 -2 13 -5z m4 -77 c-10 -9
-11 -8 -5 6 3 10 9 15 12 12 3 -3 0 -11 -7 -18z m24 -17 c3 -5 1 -10 -4 -10
-6 0 -11 5 -11 10 0 6 2 10 4 10 3 0 8 -4 11 -10z m12 -56 c-3 -3 -12 -4 -19
-1 -8 3 -5 6 6 6 11 1 17 -2 13 -5z m8 -52 c-3 -3 -11 0 -18 7 -9 10 -8 11 6
5 10 -3 15 -9 12 -12z m25 -52 c0 -5 -4 -10 -10 -10 -5 0 -10 5 -10 10 0 6 5
10 10 10 6 0 10 -4 10 -10z m-9404 -195 c1 -8 -2 -15 -6 -15 -5 0 -8 9 -7 20
1 21 10 18 13 -5z m9460 -23 c4 -24 -11 -38 -22 -21 -5 8 -3 9 5 5 15 -10 11
25 -4 37 -6 5 -4 7 4 5 8 -2 16 -14 17 -26z m-9478 -18 c-1 -5 -9 -9 -16 -10
-10 -2 -11 1 -1 12 12 14 24 13 17 -2z m9497 -44 c3 -5 1 -10 -4 -10 -6 0 -11
5 -11 10 0 6 2 10 4 10 3 0 8 -4 11 -10z m25 -160 c0 -5 -5 -10 -11 -10 -5 0
-7 5 -4 10 3 6 8 10 11 10 2 0 4 -4 4 -10z m17 -76 c-3 -3 -12 -4 -19 -1 -8 3
-5 6 6 6 11 1 17 -2 13 -5z m8 -92 c-3 -3 -11 0 -18 7 -9 10 -8 11 6 5 10 -3
15 -9 12 -12z m12 -37 c0 -8 -4 -12 -9 -9 -5 3 -6 10 -3 15 9 13 12 11 12 -6z
m-5 -29 c7 4 8 2 4 -5 -9 -13 -26 -5 -25 12 0 9 2 8 6 -1 2 -6 10 -9 15 -6z
m23 -105 c-6 -5 -25 10 -25 20 0 5 6 4 14 -3 8 -7 12 -15 11 -17z m0 -21 c3
-6 -1 -7 -9 -4 -18 7 -21 14 -7 14 6 0 13 -4 16 -10z m0 -50 c-4 -6 -1 -19 6
-28 12 -16 12 -16 -5 0 -16 14 -15 38 0 38 3 0 2 -5 -1 -10z m0 -70 c-3 -5 -1
-10 6 -10 7 0 10 -3 6 -6 -9 -9 -28 6 -22 17 4 5 8 9 11 9 3 0 2 -4 -1 -10z
m20 -40 c3 -5 1 -10 -4 -10 -6 0 -11 5 -11 10 0 6 2 10 4 10 3 0 8 -4 11 -10z
m-9715 -22 c0 -4 -4 -8 -9 -8 -6 0 -12 4 -15 8 -3 5 1 9 9 9 8 0 15 -4 15 -9z
m9720 -12 c0 -3 -4 -8 -10 -11 -5 -3 -10 -1 -10 4 0 6 5 11 10 11 6 0 10 -2
10 -4z m0 -98 c10 -21 10 -21 -3 -6 -8 10 -18 14 -22 10 -5 -4 -5 -1 -1 6 10
17 14 15 26 -10z m0 -48 c0 -10 -3 -21 -7 -23 -5 -3 -8 8 -8 23 0 15 3 26 8
23 4 -2 7 -13 7 -23z m0 -50 c-6 -11 -13 -20 -16 -20 -2 0 0 9 6 20 6 11 13
20 16 20 2 0 0 -9 -6 -20z m0 -120 c-6 -11 -13 -20 -16 -20 -2 0 0 9 6 20 6
11 13 20 16 20 2 0 0 -9 -6 -20z m-6 -170 c-6 -6 -10 -3 -10 10 0 13 4 16 10
10 7 -7 7 -13 0 -20z m6 -70 c-6 -11 -13 -20 -16 -20 -2 0 0 9 6 20 6 11 13
20 16 20 2 0 0 -9 -6 -20z m0 -40 c-6 -11 -13 -20 -16 -20 -2 0 0 9 6 20 6 11
13 20 16 20 2 0 0 -9 -6 -20z m-3 -156 c-4 -15 -5 -14 -6 4 -1 15 -5 21 -13
16 -7 -5 -8 -3 -3 5 10 18 28 -2 22 -25z m-7 -78 c0 -2 -7 -7 -16 -10 -8 -3
-12 -2 -9 4 6 10 25 14 25 6z m-5 -56 c3 -6 -1 -7 -9 -4 -18 7 -21 14 -7 14 6
0 13 -4 16 -10z m2 -26 c-3 -3 -12 -4 -19 -1 -8 3 -5 6 6 6 11 1 17 -2 13 -5z
m-9692 -64 c3 -5 1 -10 -4 -10 -6 0 -11 5 -11 10 0 6 2 10 4 10 3 0 8 -4 11
-10z m9685 -30 c0 -5 -7 -7 -15 -4 -8 4 -15 8 -15 10 0 2 7 4 15 4 8 0 15 -4
15 -10z m-12 -35 c-3 -3 -9 2 -12 12 -6 14 -5 15 5 6 7 -7 10 -15 7 -18z m-13
-45 c3 -5 1 -10 -4 -10 -6 0 -11 5 -11 10 0 6 2 10 4 10 3 0 8 -4 11 -10z m0
-60 c3 -5 1 -10 -4 -10 -6 0 -11 5 -11 10 0 6 2 10 4 10 3 0 8 -4 11 -10z
m-24 -43 c-10 -9 -11 -8 -5 6 3 10 9 15 12 12 3 -3 0 -11 -7 -18z m-9591 -21
c0 -3 -4 -8 -10 -11 -5 -3 -10 -1 -10 4 0 6 5 11 10 11 6 0 10 -2 10 -4z m0
-36 c0 -5 -4 -10 -10 -10 -5 0 -10 5 -10 10 0 6 5 10 10 10 6 0 10 -4 10 -10z
m9593 -45 c-3 -9 -8 -14 -10 -11 -3 3 -2 9 2 15 9 16 15 13 8 -4z m-13 -95 c0
-5 -5 -10 -11 -10 -5 0 -7 5 -4 10 3 6 8 10 11 10 2 0 4 -4 4 -10z m-15 -28
c-3 -3 -11 0 -18 7 -9 10 -8 11 6 5 10 -3 15 -9 12 -12z m-5 -72 c0 -5 -4 -10
-10 -10 -5 0 -10 5 -10 10 0 6 5 10 10 10 6 0 10 -4 10 -10z m-26 -40 c-6 -6
-10 -3 -10 10 0 13 4 16 10 10 7 -7 7 -13 0 -20z m-9468 -15 c-3 -20 -16 -31
-16 -13 0 13 8 28 16 28 1 0 1 -7 0 -15z m9469 -26 c-4 -5 -12 -9 -18 -8 -9 0
-8 2 1 6 6 2 9 10 6 15 -4 7 -2 8 5 4 6 -4 9 -12 6 -17z m-9455 -19 c0 -5 -4
-10 -10 -10 -5 0 -10 5 -10 10 0 6 5 10 10 10 6 0 10 -4 10 -10z m9440 -30 c0
-5 -2 -10 -4 -10 -3 0 -8 5 -11 10 -3 6 -1 10 4 10 6 0 11 -4 11 -10z m-12
-56 c-3 -14 -5 -12 -10 9 -3 19 -2 25 4 19 6 -6 8 -18 6 -28z m-8 -56 c0 -4
-4 -8 -9 -8 -6 0 -12 4 -15 8 -3 5 1 9 9 9 8 0 15 -4 15 -9z m-22 -63 c-3 -3
-9 2 -12 12 -6 14 -5 15 5 6 7 -7 10 -15 7 -18z m-14 -37 c-3 -4 -11 -8 -17
-7 -9 0 -9 2 0 5 7 3 9 13 6 22 -4 14 -3 14 5 2 6 -8 8 -18 6 -22z m-9307 -23
c0 -20 -4 -19 -17 5 -8 15 -8 18 3 14 8 -3 14 -11 14 -19z m26 -90 c-3 -9 -8
-14 -10 -11 -3 3 -2 9 2 15 9 16 15 13 8 -4z m9227 -45 c0 -5 -5 -10 -11 -10
-5 0 -7 5 -4 10 3 6 8 10 11 10 2 0 4 -4 4 -10z m-9196 -29 c-4 -3 -9 0 -11 7
-3 6 -10 9 -15 6 -7 -4 -8 -2 -4 5 6 9 11 9 22 0 8 -6 12 -15 8 -18z m11 -21
c12 -19 14 -50 3 -50 -5 0 -8 7 -4 15 3 8 1 15 -5 15 -6 0 -8 4 -5 9 4 5 0 12
-6 14 -9 4 -10 6 -1 6 6 1 15 -3 18 -9z m9151 -72 c4 -7 3 -8 -4 -4 -7 4 -12
2 -12 -5 0 -7 -3 -10 -6 -6 -6 5 3 27 11 27 2 0 7 -5 11 -12z m-6 -31 c0 -2
-10 -12 -22 -23 l-23 -19 19 23 c18 21 26 27 26 19z m-70 -181 c0 -3 -4 -8
-10 -11 -5 -3 -10 -1 -10 4 0 6 5 11 10 11 6 0 10 -2 10 -4z m-29 -53 c-12
-20 -14 -14 -5 12 4 9 9 14 11 11 3 -2 0 -13 -6 -23z m-11 -27 c0 -3 -4 -8
-10 -11 -5 -3 -10 -1 -10 4 0 6 5 11 10 11 6 0 10 -2 10 -4z m-63 -141 c0 -8
-4 -12 -9 -9 -5 3 -6 10 -3 15 9 13 12 11 12 -6z m-8442 -504 c3 -5 2 -12 -3
-15 -5 -3 -9 1 -9 9 0 17 3 19 12 6z m8153 -37 c-12 -12 -17 -13 -23 -3 -5 8
-4 10 4 5 6 -4 14 0 17 9 4 9 9 13 12 10 3 -3 -1 -13 -10 -21z m-408 -558 c0
-3 -4 -8 -10 -11 -5 -3 -10 -1 -10 4 0 6 5 11 10 11 6 0 10 -2 10 -4z m-7845
-54 c-3 -3 -11 0 -18 7 -9 10 -8 11 6 5 10 -3 15 -9 12 -12z m7380 -432 c3 -5
1 -10 -4 -10 -6 0 -11 5 -11 10 0 6 2 10 4 10 3 0 8 -4 11 -10z m-6535 -336
c0 -8 -19 -13 -24 -6 -3 5 1 9 9 9 8 0 15 -2 15 -3z m274 -210 c3 -8 2 -12 -4
-9 -6 3 -10 10 -10 16 0 14 7 11 14 -7z m161 -94 c3 -5 1 -10 -4 -10 -6 0 -11
5 -11 10 0 6 2 10 4 10 3 0 8 -4 11 -10z m5198 -35 c-3 -9 -8 -14 -10 -11 -3
3 -2 9 2 15 9 16 15 13 8 -4z m-4983 -90 c19 -22 8 -25 -12 -3 -10 10 -14 18
-9 18 5 0 14 -7 21 -15z m65 -35 c3 -5 1 -10 -4 -10 -6 0 -11 5 -11 10 0 6 2
10 4 10 3 0 8 -4 11 -10z m205 -94 c0 -2 -7 -7 -16 -10 -8 -3 -12 -2 -9 4 6
10 25 14 25 6z m95 -54 c-3 -3 -11 0 -18 7 -9 10 -8 11 6 5 10 -3 15 -9 12
-12z m75 -28 c0 -8 -19 -13 -24 -6 -3 5 1 9 9 9 8 0 15 -2 15 -3z m3790 -58
c0 -3 -4 -8 -10 -11 -5 -3 -10 -1 -10 4 0 6 5 11 10 11 6 0 10 -2 10 -4z
m-3423 -81 c0 -8 -4 -15 -9 -15 -10 0 -11 14 -1 23 9 10 10 9 10 -8z m154 -52
c13 -16 12 -17 -3 -4 -17 13 -22 21 -14 21 2 0 10 -8 17 -17z m169 -43 c0 -5
-5 -10 -11 -10 -5 0 -7 5 -4 10 3 6 8 10 11 10 2 0 4 -4 4 -10z m97 -25 c0 -8
-4 -12 -9 -9 -5 3 -6 10 -3 15 9 13 12 11 12 -6z m357 -71 c3 -8 2 -12 -4 -9
-6 3 -10 10 -10 16 0 14 7 11 14 -7z m1663 -6 c-3 -8 -6 -5 -6 6 -1 11 2 17 5
13 3 -3 4 -12 1 -19z m-1263 -57 c-5 -6 -34 20 -34 30 0 5 8 1 18 -8 10 -10
17 -20 16 -22z m24 4 c-3 -3 -9 2 -12 12 -6 14 -5 15 5 6 7 -7 10 -15 7 -18z
m116 -7 c-3 -4 -11 -5 -19 -1 -21 7 -19 12 4 10 11 0 18 -5 15 -9z"/>
<path d="M5258 9703 c23 -2 61 -2 85 0 23 2 4 4 -43 4 -47 0 -66 -2 -42 -4z"/>
<path d="M4768 9693 c12 -2 30 -2 40 0 9 3 -1 5 -23 4 -22 0 -30 -2 -17 -4z"/>
<path d="M5453 9693 c15 -2 37 -2 50 0 12 2 0 4 -28 4 -27 0 -38 -2 -22 -4z"/>
<path d="M4663 9683 c9 -2 23 -2 30 0 6 3 -1 5 -18 5 -16 0 -22 -2 -12 -5z"/>
<path d="M5573 9683 c9 -2 25 -2 35 0 9 3 1 5 -18 5 -19 0 -27 -2 -17 -5z"/>
<path d="M4583 9673 c9 -2 23 -2 30 0 6 3 -1 5 -18 5 -16 0 -22 -2 -12 -5z"/>
<path d="M5658 9673 c6 -2 18 -2 25 0 6 3 1 5 -13 5 -14 0 -19 -2 -12 -5z"/>
<path d="M4498 9663 c6 -2 18 -2 25 0 6 3 1 5 -13 5 -14 0 -19 -2 -12 -5z"/>
<path d="M5748 9663 c7 -3 16 -2 19 1 4 3 -2 6 -13 5 -11 0 -14 -3 -6 -6z"/>
<path d="M4428 9653 c6 -2 18 -2 25 0 6 3 1 5 -13 5 -14 0 -19 -2 -12 -5z"/>
<path d="M5818 9653 c6 -2 18 -2 25 0 6 3 1 5 -13 5 -14 0 -19 -2 -12 -5z"/>
<path d="M4358 9643 c6 -2 18 -2 25 0 6 3 1 5 -13 5 -14 0 -19 -2 -12 -5z"/>
<path d="M5878 9643 c7 -3 16 -2 19 1 4 3 -2 6 -13 5 -11 0 -14 -3 -6 -6z"/>
<path d="M4308 9633 c7 -3 16 -2 19 1 4 3 -2 6 -13 5 -11 0 -14 -3 -6 -6z"/>
<path d="M5938 9633 c7 -3 16 -2 19 1 4 3 -2 6 -13 5 -11 0 -14 -3 -6 -6z"/>
<path d="M4248 9623 c6 -2 18 -2 25 0 6 3 1 5 -13 5 -14 0 -19 -2 -12 -5z"/>
<path d="M5988 9623 c7 -3 16 -2 19 1 4 3 -2 6 -13 5 -11 0 -14 -3 -6 -6z"/>
<path d="M4198 9613 c6 -2 18 -2 25 0 6 3 1 5 -13 5 -14 0 -19 -2 -12 -5z"/>
<path d="M6038 9613 c7 -3 16 -2 19 1 4 3 -2 6 -13 5 -11 0 -14 -3 -6 -6z"/>
<path d="M4148 9603 c6 -2 18 -2 25 0 6 3 1 5 -13 5 -14 0 -19 -2 -12 -5z"/>
<path d="M6088 9603 c7 -3 16 -2 19 1 4 3 -2 6 -13 5 -11 0 -14 -3 -6 -6z"/>
<path d="M4108 9593 c7 -3 16 -2 19 1 4 3 -2 6 -13 5 -11 0 -14 -3 -6 -6z"/>
<path d="M3975 9567 c-44 -11 -75 -22 -70 -23 6 -2 51 7 100 20 50 13 81 24
70 24 -11 0 -56 -9 -100 -21z"/>
<path d="M3760 9505 c-1012 -319 -1853 -942 -2436 -1805 -100 -148 -218 -348
-293 -498 -85 -170 -218 -488 -208 -498 1 -2 24 52 51 119 220 560 575 1096
1016 1537 514 514 1114 883 1815 1116 105 35 183 63 175 63 -8 0 -62 -16 -120
-34z"/>
<path d="M2376 8853 c-3 -7 -2 -13 3 -13 5 0 14 6 20 13 8 10 7 14 -4 14 -8 0
-16 -6 -19 -14z"/>
<path d="M3205 8493 c-112 -14 -242 -36 -253 -42 -10 -5 -7 -12 9 -27 12 -10
19 -13 14 -5 -5 10 -4 12 3 7 7 -4 12 -13 12 -19 1 -21 58 -70 72 -61 9 5 8 2
-2 -11 -9 -11 -10 -16 -2 -11 7 4 12 2 12 -4 0 -7 7 -10 14 -7 11 4 13 1 9
-10 -5 -12 -2 -15 10 -10 9 3 19 1 23 -5 4 -7 3 -8 -4 -4 -7 4 -12 2 -12 -3 0
-6 3 -11 8 -11 4 0 20 -18 36 -40 25 -33 32 -38 45 -27 9 7 12 8 8 1 -6 -10
58 -104 71 -104 2 0 -1 7 -8 15 -7 9 -10 18 -6 22 3 3 6 1 6 -6 0 -7 4 -10 8
-7 4 2 9 -4 9 -15 2 -26 21 -49 40 -49 7 0 17 -8 20 -17 11 -29 30 -45 36 -30
3 7 6 4 6 -6 1 -10 12 -29 25 -42 18 -18 26 -21 35 -12 9 9 11 8 6 -5 -7 -18
41 -76 58 -70 5 1 7 -3 5 -10 -6 -18 49 -68 75 -69 21 0 21 -1 2 -9 -17 -7
-17 -9 -2 -9 9 -1 17 -6 17 -12 0 -5 5 -7 10 -4 6 4 10 3 9 -2 -1 -4 -1 -15 0
-23 1 -12 5 -10 17 5 15 19 15 19 8 -9 -5 -20 -3 -27 4 -22 6 3 13 -3 17 -14
6 -20 15 -24 45 -21 13 2 13 1 0 -8 -12 -8 -12 -13 4 -30 11 -12 25 -21 33
-21 8 0 11 -5 7 -12 -5 -7 -2 -9 9 -5 11 4 14 2 10 -9 -3 -9 1 -14 12 -14 9 0
13 -4 10 -10 -3 -5 1 -10 10 -10 9 0 13 -4 10 -10 -3 -5 1 -10 9 -10 8 0 18
-5 22 -12 5 -7 2 -8 -7 -3 -8 4 -4 -2 9 -14 12 -12 26 -19 32 -16 5 3 7 -4 5
-15 -4 -19 6 -25 30 -20 6 1 7 -1 3 -5 -9 -10 24 -45 35 -38 6 3 7 1 3 -5 -4
-6 2 -17 14 -24 11 -7 20 -18 20 -25 0 -7 7 -10 17 -6 10 4 14 2 10 -4 -4 -5
1 -19 9 -29 9 -10 13 -13 9 -7 -4 9 -1 11 9 7 9 -3 13 -10 10 -15 -9 -15 15
-39 32 -32 9 3 12 0 9 -9 -3 -8 16 -33 45 -61 28 -27 50 -52 48 -57 -2 -4 -85
-93 -184 -197 -100 -103 -201 -208 -225 -234 -24 -25 -152 -157 -285 -295
-325 -336 -314 -323 -315 -364 -2 -30 -3 -31 -6 -7 -2 15 -8 27 -13 27 -5 0
-14 10 -20 23 -10 20 -10 20 3 5 8 -10 18 -18 23 -18 4 0 -122 130 -282 290
-159 159 -294 290 -301 290 -7 0 -10 -7 -7 -17 5 -15 4 -15 -4 -3 -6 8 -7 19
-2 25 13 15 -54 77 -68 63 -8 -8 -9 -4 -5 13 l6 24 -23 -20 -23 -20 13 21 c11
18 9 24 -21 55 -18 19 -37 33 -41 32 -4 -2 -10 6 -13 17 -4 11 -15 20 -26 20
-13 0 -18 -4 -13 -12 4 -7 3 -8 -5 -4 -6 4 -9 12 -6 17 4 5 -6 14 -20 21 -18
8 -22 14 -13 19 7 4 9 11 5 15 -3 4 -15 1 -24 -7 -15 -11 -16 -11 -5 1 6 8 12
20 12 28 0 12 -3 12 -15 2 -13 -11 -14 -10 -9 4 3 9 1 16 -4 16 -6 0 -14 9
-17 20 -5 16 -10 18 -25 10 -16 -8 -18 -8 -14 5 8 20 -20 46 -43 39 -13 -4
-15 -3 -4 4 11 8 10 13 -5 30 -10 12 -22 18 -27 15 -6 -3 -7 -2 -4 4 3 5 -54
69 -128 143 -122 121 -134 131 -140 109 -45 -196 -58 -339 -52 -568 4 -156 10
-219 30 -311 26 -119 83 -290 97 -290 4 0 7 -6 6 -12 -2 -21 57 -127 67 -121
6 3 7 1 3 -5 -3 -6 4 -21 16 -33 13 -12 17 -18 9 -14 -7 4 -3 -6 9 -23 13 -17
27 -29 31 -26 4 2 11 -1 15 -7 4 -8 3 -9 -4 -5 -7 4 -12 2 -12 -3 0 -14 200
-215 207 -208 3 3 16 -5 30 -19 13 -13 29 -22 34 -18 5 3 8 2 7 -3 -2 -4 0 -9
5 -10 4 -2 17 -12 30 -24 31 -29 244 -132 256 -124 6 3 11 2 11 -3 0 -15 124
-55 128 -42 2 6 9 4 16 -6 8 -10 18 -14 26 -9 10 6 9 9 -1 17 -11 8 -11 9 1 5
8 -2 14 -11 12 -21 -2 -9 2 -16 8 -16 5 0 9 3 9 8 -4 25 4 31 37 28 48 -5 50
-10 13 -28 l-31 -15 38 -8 c31 -5 41 -3 52 12 13 17 14 17 7 -4 -5 -19 -2 -23
14 -23 13 0 21 7 22 18 0 13 2 12 9 -5 6 -16 19 -24 37 -25 15 0 39 -3 53 -5
14 -2 50 -6 80 -9 30 -3 74 -8 98 -11 28 -3 42 -1 42 7 0 6 -5 8 -12 4 -7 -5
-8 -3 -3 6 6 10 10 10 19 -2 17 -23 304 -24 321 -1 10 13 14 13 20 3 5 -9 4
-11 -3 -6 -7 4 -12 2 -12 -3 0 -13 50 -11 68 2 9 7 11 6 7 -5 -4 -9 15 -33 50
-66 31 -28 55 -53 53 -56 -2 -2 11 -15 27 -27 17 -13 32 -27 33 -31 2 -5 8 -6
13 -2 5 3 8 2 7 -3 -2 -4 5 -19 16 -33 l18 -25 -6 25 c-5 18 -1 15 12 -10 10
-19 24 -34 30 -33 7 2 12 -7 12 -18 0 -16 5 -20 20 -16 11 3 17 1 14 -4 -9
-15 17 -41 34 -34 12 4 13 3 2 -10 -12 -15 -4 -20 22 -16 5 0 7 -5 5 -12 -1
-6 3 -11 10 -10 6 1 17 -5 25 -14 9 -12 9 -15 1 -9 -7 4 -13 2 -13 -3 0 -6 5
-12 10 -12 6 -1 16 -2 23 -3 6 -1 11 -10 9 -20 -2 -11 1 -15 7 -11 6 3 11 -1
11 -11 0 -10 3 -14 7 -11 3 4 11 -3 17 -15 6 -12 18 -23 26 -25 10 -3 8 1 -4
11 -11 9 -15 16 -9 16 5 0 18 -10 29 -22 10 -12 13 -18 7 -14 -7 4 -13 5 -13
2 0 -11 35 -46 45 -46 5 0 4 4 -4 9 -9 6 -10 11 -2 15 10 7 15 -5 12 -31 -1
-6 4 -15 10 -19 7 -4 9 -3 5 4 -3 6 -3 13 2 16 4 2 9 -5 9 -16 2 -26 55 -78
61 -60 2 8 10 4 22 -10 10 -12 16 -28 13 -34 -7 -18 18 -29 29 -13 8 11 8 10
4 -4 -6 -19 14 -47 34 -47 6 0 8 -5 4 -12 -5 -8 -2 -9 10 -5 10 4 15 3 11 -3
-4 -6 0 -17 9 -25 18 -18 30 -20 20 -2 -4 6 2 3 14 -7 12 -11 22 -24 22 -29 0
-6 -7 -2 -15 9 -8 10 -15 14 -15 8 0 -18 28 -37 46 -30 15 6 15 4 3 -11 -13
-15 -12 -16 9 -11 17 5 21 3 14 -5 -7 -8 -5 -16 3 -24 11 -10 15 -10 18 0 3 7
6 5 6 -5 1 -21 31 -58 46 -58 5 0 4 4 -4 9 -9 6 -10 11 -2 15 6 4 12 1 12 -6
1 -7 2 -20 3 -28 0 -8 9 -14 18 -14 11 1 14 -4 11 -14 -4 -10 -2 -13 5 -8 7 4
12 1 12 -9 0 -12 6 -15 23 -10 16 5 18 4 8 -3 -12 -9 -12 -12 1 -26 9 -8 18
-12 22 -9 3 4 6 1 6 -6 0 -16 45 -61 61 -61 7 0 10 -3 6 -6 -3 -4 1 -14 10
-23 12 -12 17 -13 21 -3 2 8 10 4 22 -10 14 -18 16 -26 7 -38 -6 -8 -7 -12 -3
-8 5 4 15 0 23 -10 8 -9 12 -12 9 -5 -4 6 -1 15 5 19 8 4 9 3 5 -4 -4 -6 2
-19 13 -29 11 -9 18 -21 14 -25 -3 -5 4 -12 16 -15 11 -3 23 -13 26 -23 3 -10
13 -21 21 -24 8 -3 12 -10 9 -16 -3 -5 0 -7 8 -4 8 3 18 0 23 -7 5 -8 3 -10
-7 -4 -12 8 -12 6 0 -8 7 -9 18 -14 24 -10 5 3 7 1 4 -4 -6 -10 15 -36 24 -30
2 1 3 0 2 -1 -4 -8 31 -40 39 -36 5 3 8 2 7 -3 -4 -22 3 -33 20 -33 11 0 23
-5 27 -12 4 -7 3 -8 -4 -4 -7 4 -12 3 -12 -2 0 -10 29 -26 42 -24 5 1 7 -1 7
-6 -4 -22 3 -32 22 -32 11 0 18 -4 14 -10 -3 -5 3 -18 15 -30 25 -25 31 -25
24 -2 -5 14 -4 14 4 2 6 -8 9 -17 6 -21 -2 -4 -1 -10 4 -13 5 -3 5 -29 1 -58
-11 -80 -10 -370 2 -494 19 -203 103 -547 143 -586 7 -7 11 -19 8 -26 -2 -6 1
-12 7 -12 6 0 10 -3 8 -8 -4 -15 36 -91 46 -85 6 3 7 1 4 -5 -10 -15 3 -43 17
-35 6 3 8 3 4 -2 -9 -9 19 -65 32 -65 6 0 9 -3 8 -7 -5 -14 65 -102 75 -96 6
3 7 1 3 -5 -3 -6 1 -15 10 -20 9 -5 17 -13 17 -18 1 -5 6 -8 10 -6 5 1 6 -2 3
-6 -7 -12 28 -44 38 -35 4 5 6 1 4 -7 -2 -9 3 -14 12 -12 8 2 12 0 8 -4 -9 -9
10 -34 26 -34 6 0 4 5 -4 11 -10 7 -11 9 -2 7 8 -2 12 -6 10 -10 -4 -8 43 -58
54 -58 5 0 6 6 2 13 -4 7 -3 9 2 4 5 -5 9 -14 9 -20 0 -16 145 -103 238 -143
71 -31 82 -33 90 -19 7 13 12 14 23 4 8 -6 14 -17 14 -24 0 -8 35 -21 88 -34
170 -41 268 -50 258 -25 -2 6 2 11 9 11 7 0 12 -7 11 -16 -1 -13 14 -16 96
-18 83 -1 97 1 101 15 4 15 5 15 6 0 2 -26 145 -26 160 0 6 9 11 11 11 5 0
-16 86 -18 95 -3 4 6 11 8 16 4 6 -3 26 -3 46 1 33 6 34 7 17 20 -11 8 -28 15
-39 15 -17 0 -17 2 -5 10 16 10 13 12 -22 14 -13 0 -23 7 -23 14 0 7 -7 17
-15 22 -9 6 -10 10 -3 10 7 0 21 -10 33 -22 11 -12 20 -18 20 -12 0 16 -78 86
-89 80 -6 -4 -9 -1 -6 6 7 22 -32 61 -56 55 -16 -4 -18 -3 -8 9 9 11 8 14 -5
14 -9 0 -16 5 -16 11 0 5 6 7 13 3 6 -4 -9 14 -34 39 -42 43 -81 64 -63 35 4
-7 3 -8 -5 -4 -8 6 -9 12 -2 20 15 18 -53 80 -77 71 -9 -3 -13 -3 -9 1 9 9
-12 36 -23 29 -5 -3 -6 4 -3 15 4 15 -10 37 -55 84 -34 35 -63 61 -66 58 -3
-2 4 -12 16 -22 17 -13 18 -17 5 -17 -9 0 -14 4 -12 8 3 4 -2 10 -11 13 -8 3
-13 10 -9 16 11 17 -13 49 -34 43 -10 -3 -22 1 -27 8 -5 9 -2 11 9 6 26 -10
20 6 -13 38 -24 23 -33 27 -39 16 -7 -10 -10 -9 -14 4 -4 9 -3 13 3 10 17 -10
11 3 -12 30 -11 13 -25 22 -30 19 -4 -3 -8 0 -8 6 0 6 -4 9 -9 5 -5 -3 -16 4
-24 15 -7 11 -16 17 -19 14 -3 -3 -5 3 -4 13 0 10 -4 17 -10 16 -6 -1 -11 5
-11 13 0 11 9 7 27 -13 15 -15 25 -32 22 -37 -3 -5 1 -6 8 -1 9 6 11 4 5 -5
-6 -9 -4 -11 4 -5 9 5 -9 30 -60 81 -41 41 -78 74 -84 74 -5 0 -3 -5 5 -10 9
-6 10 -10 3 -10 -14 0 -28 19 -28 40 -1 26 -14 38 -38 33 -17 -4 -19 -3 -7 6
13 9 11 13 -8 32 -18 16 -27 18 -35 10 -8 -8 -7 -11 3 -11 7 0 11 -3 7 -6 -3
-3 -11 -3 -17 1 -8 5 -8 11 1 21 10 12 7 20 -11 39 -25 26 -50 33 -50 13 0 -6
-3 -8 -6 -5 -4 4 -1 13 6 22 8 10 9 15 1 15 -6 0 -11 6 -11 13 0 23 -55 68
-67 56 -11 -11 -27 4 -28 26 -1 6 -7 9 -14 7 -7 -1 -10 2 -6 8 5 8 11 8 21 -1
7 -6 12 -15 9 -19 -3 -5 -1 -11 5 -15 5 -3 10 0 10 8 0 20 -86 97 -109 97 -10
0 -25 8 -32 17 -7 10 -9 15 -5 11 5 -4 15 0 22 10 12 16 14 16 31 -3 10 -11
11 -14 4 -7 -17 14 -35 16 -27 3 4 -5 0 -12 -6 -14 -7 -3 -2 -6 12 -6 19 -1
44 18 96 72 70 72 70 73 50 90 -12 10 -15 15 -8 12 6 -3 12 -2 12 2 0 5 16 27
36 49 21 21 32 29 26 18 -6 -12 -8 -25 -4 -29 4 -3 0 -5 -8 -3 -11 2 -14 -4
-13 -22 2 -22 2 -22 -6 -5 -8 19 -8 19 -20 -3 -20 -38 19 -27 63 18 30 31 35
41 23 46 -24 9 -17 42 8 37 16 -4 17 -3 5 6 -8 5 -12 13 -9 16 4 3 12 -1 19
-10 10 -12 8 -16 -11 -24 -20 -7 -21 -10 -8 -16 11 -4 29 6 55 29 35 32 37 36
26 63 -12 28 -12 28 5 6 15 -19 20 -20 31 -7 11 11 10 14 -2 14 -25 0 -28 18
-7 39 19 19 20 19 18 1 -1 -10 -4 -17 -8 -14 -4 2 -10 0 -14 -6 -4 -6 5 -10
20 -10 20 0 26 4 21 16 -3 9 -2 12 5 9 12 -8 41 14 33 26 -3 5 2 9 11 9 8 0
20 11 27 25 6 13 14 22 18 20 11 -7 33 23 25 34 -3 7 0 8 9 5 12 -5 16 0 16
17 0 19 2 21 10 9 8 -13 10 -12 10 2 0 10 3 17 8 16 10 -4 222 213 217 222 -3
4 5 10 16 13 14 4 20 11 16 21 -4 11 -1 13 10 9 8 -3 19 0 23 7 5 7 47 52 94
100 47 48 82 90 79 94 -4 3 1 6 10 6 9 0 22 8 29 18 7 9 29 30 48 46 19 16 27
27 18 23 -10 -3 -22 1 -30 11 -12 15 -11 16 5 3 15 -12 17 -11 17 2 0 8 -6 18
-12 20 -10 4 -10 6 -1 6 12 1 37 -35 38 -54 0 -5 11 -15 25 -22 14 -7 21 -13
16 -13 -5 0 -3 -7 4 -15 7 -8 20 -14 29 -13 10 2 17 -5 19 -19 2 -12 11 -27
20 -35 15 -12 16 -11 3 5 -12 15 -12 17 3 11 9 -3 16 -15 16 -26 0 -14 5 -18
16 -14 8 3 13 2 10 -3 -3 -5 2 -15 11 -22 14 -12 16 -12 8 0 -5 10 -4 12 3 7
7 -4 12 -13 12 -20 0 -18 75 -93 89 -88 6 2 11 -3 11 -12 0 -9 7 -16 16 -16 9
0 12 -5 8 -12 -5 -7 -2 -9 8 -5 10 3 15 0 14 -11 0 -9 6 -18 14 -18 8 -1 21
-2 28 -3 7 0 10 -6 6 -12 -4 -8 -9 -7 -15 2 -5 8 -9 9 -9 4 0 -10 35 -45 46
-45 3 0 2 5 -2 12 -4 7 -3 8 4 4 7 -4 17 -17 22 -29 11 -21 11 -21 -4 -3 -9
11 -16 14 -16 7 0 -6 13 -20 30 -29 16 -9 30 -23 30 -29 0 -7 5 -13 11 -13 5
0 7 6 3 13 -5 8 -2 8 9 -2 18 -15 23 -26 7 -16 -5 3 -10 1 -10 -6 0 -6 8 -9
20 -6 11 3 17 1 14 -4 -6 -10 49 -69 64 -69 5 0 16 -8 23 -17 13 -17 13 -17
-6 -3 -20 15 -20 14 -1 -8 11 -12 25 -22 33 -22 8 0 11 -4 8 -10 -3 -5 0 -10
8 -10 8 0 21 -8 28 -17 13 -17 13 -17 -6 -3 -19 14 -19 14 -6 -3 8 -10 20 -16
27 -13 8 3 13 2 13 -2 -4 -21 6 -34 51 -70 27 -22 46 -42 43 -46 -3 -3 3 -6
15 -6 14 0 22 -6 22 -16 0 -23 32 -45 47 -33 7 7 14 6 19 -2 4 -8 3 -9 -4 -5
-17 10 -15 -13 2 -30 17 -17 30 -19 20 -2 -4 7 -3 8 4 4 6 -4 9 -13 6 -20 -7
-18 22 -40 43 -32 10 4 14 4 10 0 -4 -4 -1 -14 6 -23 10 -14 10 -14 -3 -6 -9
6 -7 2 3 -7 11 -10 24 -15 30 -11 6 4 7 1 3 -6 -9 -13 20 -51 38 -51 6 0 0 10
-14 21 -19 16 -20 18 -4 10 23 -11 51 -41 39 -41 -5 0 0 -9 10 -20 10 -11 22
-17 27 -14 5 3 8 0 6 -7 -1 -8 -1 -14 2 -15 3 0 26 -22 51 -47 25 -26 49 -44
52 -40 4 3 7 0 7 -7 0 -7 17 -29 37 -49 20 -20 34 -28 30 -18 -3 9 -2 17 3 17
13 0 13 47 1 55 -5 3 -11 -3 -13 -12 -3 -15 -5 -15 -10 4 -5 18 -2 21 18 17
21 -4 24 -1 24 26 0 17 -5 30 -12 30 -8 0 -6 5 4 10 17 11 17 11 21 240 2 89
1 95 -18 93 -19 -1 -19 -1 -2 11 13 10 17 28 17 75 0 33 -4 61 -10 61 -5 0 -7
7 -4 15 10 24 -17 149 -34 163 -10 7 -11 12 -4 12 15 0 15 11 0 47 -6 15 -11
31 -10 35 2 9 -19 68 -58 162 -23 54 -35 74 -41 64 -6 -9 -8 -5 -7 12 2 28
-66 148 -88 157 -8 3 -12 9 -9 13 3 5 -20 34 -50 66 -30 32 -55 61 -55 65 0 3
-9 14 -20 24 -11 10 -20 15 -20 12 0 -4 -16 10 -36 31 -20 20 -33 30 -29 22 4
-8 -4 -1 -19 15 -14 17 -25 26 -26 20 0 -5 -7 1 -16 13 -8 12 -19 20 -24 17
-4 -3 -11 2 -14 11 -3 8 -10 13 -15 10 -5 -3 -12 1 -15 10 -3 8 -10 12 -16 9
-5 -3 -10 -1 -10 6 0 7 -3 10 -6 7 -3 -4 -15 3 -26 14 -11 11 -26 17 -34 14
-8 -3 -13 -2 -10 3 8 12 -111 64 -126 55 -7 -4 -8 -3 -4 4 7 11 -7 16 -41 15
-7 -1 -11 3 -8 7 5 7 -43 24 -70 25 -5 0 -12 3 -15 7 -8 10 -182 54 -287 71
-145 25 -336 39 -491 35 -78 -2 -142 -1 -142 2 0 3 -11 17 -25 32 -17 18 -31
25 -47 21 -17 -3 -20 -2 -9 5 12 8 9 16 -15 41 -28 30 -52 42 -38 19 4 -7 3
-8 -4 -4 -6 4 -9 12 -7 19 8 18 -71 102 -80 87 -6 -9 -4 -11 5 -5 9 6 11 4 5
-5 -6 -10 -11 -9 -22 6 -8 10 -19 18 -24 16 -6 -1 -8 2 -4 8 3 5 1 10 -6 10
-7 0 -9 3 -6 7 4 3 16 -2 27 -12 11 -10 20 -13 20 -7 0 6 -13 16 -30 24 -16 7
-30 17 -30 21 0 5 6 5 13 1 8 -5 8 -2 -2 9 -14 18 -47 24 -36 7 4 -6 11 -7 17
-4 7 4 8 2 4 -4 -5 -9 -12 -9 -26 0 -17 11 -17 13 -2 26 15 12 15 13 -6 9 -20
-5 -21 -3 -10 10 12 15 10 15 -17 9 -26 -6 -28 -6 -13 6 16 12 13 18 -42 72
-53 53 -61 58 -76 45 -16 -13 -16 -12 -6 7 10 18 5 27 -40 70 -29 27 -45 40
-37 29 13 -18 12 -19 -2 -8 -9 7 -18 10 -22 7 -3 -3 -3 2 -1 13 6 22 -94 123
-125 126 -11 0 -17 5 -15 9 3 5 11 5 17 2 7 -4 1 5 -12 19 -14 15 -30 27 -38
27 -7 0 -13 5 -13 11 0 5 5 7 12 3 7 -4 8 -3 4 5 -4 6 -13 8 -19 4 -15 -9 -41
-14 -33 -5 4 3 -8 21 -26 40 -18 19 -27 32 -20 28 6 -4 12 -3 12 3 0 13 -67
81 -80 81 -6 0 -9 6 -7 13 1 6 -4 11 -10 10 -7 -2 -13 3 -13 10 0 20 -47 61
-55 48 -3 -6 -12 -11 -18 -10 -9 0 -9 2 1 6 16 6 15 28 -2 42 -10 8 -16 9 -21
1 -3 -5 -12 -10 -18 -9 -9 0 -9 2 1 6 19 7 14 27 -11 51 -25 24 -47 29 -47 10
0 -6 -3 -8 -6 -5 -4 4 -2 13 4 20 9 10 1 23 -35 58 -28 28 -47 39 -50 32 -3
-7 -9 -13 -15 -13 -6 0 -5 6 3 16 11 13 7 21 -26 52 -21 20 -35 32 -31 25 3
-6 3 -14 -2 -17 -4 -2 -9 5 -9 16 -3 33 -52 79 -80 74 -13 -3 -21 -1 -19 3 6
10 -5 26 -28 38 -16 9 -17 11 -2 16 10 4 15 3 13 -1 -2 -4 7 -17 19 -30 17
-18 24 -20 30 -10 4 7 3 10 -1 5 -5 -4 -17 5 -27 20 -10 16 -23 28 -30 28 -7
0 -13 5 -13 11 0 15 -67 84 -76 78 -4 -2 -9 6 -12 17 -5 17 -12 20 -30 17 -18
-4 -24 -1 -20 9 3 7 10 10 17 6 6 -3 -8 14 -31 38 -40 42 -42 47 -45 115 -2
74 -8 80 -45 52 -8 -6 -10 -4 -8 9 2 10 4 27 4 38 1 17 3 17 11 5 8 -13 10
-13 10 2 0 9 5 20 12 24 7 5 8 3 3 -6 -5 -9 -4 -11 3 -6 18 11 16 180 -1 173
-8 -3 -14 1 -14 9 0 7 4 11 9 8 12 -8 10 48 -8 184 -13 94 -20 122 -30 118
-11 -4 -11 -1 -3 12 9 14 4 46 -20 137 -17 65 -35 121 -39 124 -4 4 -8 16 -9
29 -5 43 -64 182 -75 176 -7 -4 -8 -2 -4 4 9 15 -62 155 -74 147 -6 -3 -7 1
-4 9 4 9 -1 18 -10 22 -9 3 -13 10 -10 15 3 5 -7 21 -23 36 -15 16 -26 30 -26
33 1 3 -5 4 -13 4 -11 -2 -12 1 -4 11 8 10 4 18 -16 34 -15 12 -23 21 -18 21
4 0 -5 13 -21 30 -15 16 -32 27 -37 24 -5 -3 -7 -2 -6 3 4 12 -44 63 -54 57
-5 -3 -7 0 -6 6 2 7 -5 17 -16 23 -10 7 -29 22 -42 35 -13 13 -29 20 -34 17
-6 -4 -9 -3 -8 2 2 4 0 9 -4 11 -4 1 -20 14 -35 28 -15 14 -33 22 -42 19 -8
-3 -12 -3 -8 1 9 10 -91 67 -103 59 -6 -3 -10 -1 -10 5 0 6 -4 8 -10 5 -5 -3
-10 -2 -10 3 0 14 -117 55 -131 46 -8 -5 -10 -3 -4 6 6 10 1 12 -18 8 -16 -3
-24 -1 -20 5 4 6 -2 8 -15 5 -12 -4 -20 -3 -17 1 3 6 -127 34 -195 42 -35 4
-438 6 -465 2z m-158 -128 c0 -8 -4 -12 -9 -9 -4 3 -8 9 -8 15 0 5 4 9 8 9 5
0 9 -7 9 -15z m271 -290 c-3 -3 -9 2 -12 12 -6 14 -5 15 5 6 7 -7 10 -15 7
-18z m1173 -22 c13 -16 12 -17 -3 -4 -10 7 -18 15 -18 17 0 8 8 3 21 -13z m99
-123 c0 -5 -2 -10 -4 -10 -3 0 -8 5 -11 10 -3 6 -1 10 4 10 6 0 11 -4 11 -10z
m-1010 -106 c0 -2 -7 -4 -15 -4 -8 0 -15 4 -15 10 0 5 7 7 15 4 8 -4 15 -8 15
-10z m1088 -29 c-3 -3 -9 2 -12 12 -6 14 -5 15 5 6 7 -7 10 -15 7 -18z m27
-45 c3 -6 -1 -7 -9 -4 -18 7 -21 14 -7 14 6 0 13 -4 16 -10z m35 -75 c14 -19
14 -19 -2 -6 -10 7 -18 18 -18 24 0 6 1 8 3 6 1 -2 9 -13 17 -24z m-985 -25
c3 -5 1 -10 -4 -10 -6 0 -11 5 -11 10 0 6 2 10 4 10 3 0 8 -4 11 -10z m1029
-78 c3 -5 -1 -9 -9 -9 -8 0 -15 4 -15 9 0 4 4 8 9 8 6 0 12 -4 15 -8z m31
-101 c3 -5 2 -12 -3 -15 -5 -3 -9 1 -9 9 0 17 3 19 12 6z m20 -60 c3 -5 2 -12
-3 -15 -5 -3 -9 1 -9 9 0 17 3 19 12 6z m3 -56 c-3 -3 -9 2 -12 12 -6 14 -5
15 5 6 7 -7 10 -15 7 -18z m-2838 -93 c0 -1 -9 2 -20 8 -11 6 -20 15 -20 20 0
6 9 2 20 -7 11 -10 20 -19 20 -21z m2100 28 c0 -5 -2 -10 -4 -10 -3 0 -8 5
-11 10 -3 6 -1 10 4 10 6 0 11 -4 11 -10z m-2080 -50 c8 -5 11 -10 5 -10 -5 0
-17 5 -25 10 -8 5 -10 10 -5 10 6 0 17 -5 25 -10z m2155 -20 c3 -6 -1 -7 -9
-4 -18 7 -21 14 -7 14 6 0 13 -4 16 -10z m698 -14 c4 -10 1 -13 -8 -9 -8 3
-12 9 -9 14 7 12 11 11 17 -5z m-2816 -11 c0 -8 -4 -12 -9 -9 -5 3 -6 10 -3
15 9 13 12 11 12 -6z m2158 -4 c3 -5 2 -12 -3 -15 -5 -3 -9 1 -9 9 0 17 3 19
12 6z m-2127 -26 c-3 -3 -9 2 -12 12 -6 14 -5 15 5 6 7 -7 10 -15 7 -18z m26
-13 c3 -5 -1 -9 -9 -9 -8 0 -12 4 -9 9 3 4 7 8 9 8 2 0 6 -4 9 -8z m2761 -12
c-3 -5 -1 -10 6 -10 7 0 10 -3 6 -6 -9 -9 -28 6 -22 17 4 5 8 9 11 9 3 0 2 -4
-1 -10z m-2735 -30 c0 -5 -2 -10 -4 -10 -3 0 -8 5 -11 10 -3 6 -1 10 4 10 6 0
11 -4 11 -10z m2754 -19 c3 -5 -2 -15 -12 -22 -15 -12 -16 -12 -5 2 7 9 10 19
6 22 -3 4 -4 7 0 7 3 0 8 -4 11 -9z m9 -75 c3 -7 -1 -13 -9 -13 -8 0 -12 3 -9
5 3 3 0 11 -7 19 -8 11 -7 12 5 7 8 -3 18 -11 20 -18z m11 -124 c3 -5 -1 -9
-9 -9 -8 0 -12 4 -9 9 3 4 7 8 9 8 2 0 6 -4 9 -8z m-2484 -58 c0 9 40 -38 40
-48 0 -3 -18 12 -40 34 -22 22 -40 43 -40 47 0 4 9 -3 20 -17 11 -14 20 -21
20 -16z m116 -131 c-3 -4 -6 -1 -6 6 0 7 -4 9 -10 6 -6 -4 -7 1 -3 11 6 15 7
15 15 -1 6 -9 7 -19 4 -22z m38 -11 c3 -5 -1 -9 -9 -9 -8 0 -15 4 -15 9 0 4 4
8 9 8 6 0 12 -4 15 -8z m2316 -42 c0 -5 -5 -10 -11 -10 -5 0 -7 5 -4 10 3 6 8
10 11 10 2 0 4 -4 4 -10z m-2152 -123 c89 -89 103 -107 82 -107 -5 0 -9 6 -7
13 1 6 -6 11 -15 11 -11 -1 -14 4 -11 14 4 10 2 13 -6 8 -7 -5 -10 -2 -9 6 2
7 -3 12 -10 10 -8 -1 -11 2 -6 9 5 9 2 10 -9 6 -11 -4 -14 -2 -11 7 5 14 -12
31 -31 31 -5 0 -10 7 -10 15 -1 8 -7 14 -14 12 -7 -1 -10 2 -5 9 5 9 2 10 -9
6 -11 -4 -14 -2 -11 8 4 8 -6 20 -25 30 -17 8 -31 18 -31 21 0 15 56 -29 138
-109z m2172 103 c0 -5 -5 -10 -11 -10 -5 0 -7 5 -4 10 3 6 8 10 11 10 2 0 4
-4 4 -10z m20 -107 c0 -8 5 -11 10 -8 6 3 10 4 10 1 0 -3 -5 -8 -10 -11 -6 -3
-15 6 -20 20 -5 14 -14 24 -18 21 -5 -3 -9 1 -9 9 0 13 4 12 19 -2 10 -9 18
-22 18 -30z m44 -31 c3 -5 -1 -9 -9 -9 -8 0 -15 4 -15 9 0 4 4 8 9 8 6 0 12
-4 15 -8z m41 -52 c-3 -5 -12 -10 -18 -10 -7 0 -6 4 3 10 19 12 23 12 15 0z
m40 -30 c3 -5 -1 -10 -10 -10 -9 0 -13 5 -10 10 3 6 8 10 10 10 2 0 7 -4 10
-10z m-2205 -20 c0 -5 -2 -10 -4 -10 -3 0 -8 5 -11 10 -3 6 -1 10 4 10 6 0 11
-4 11 -10z m60 -42 c0 -4 -4 -8 -10 -8 -5 0 -9 6 -7 13 1 6 -3 11 -9 10 -6 -1
-11 5 -11 13 0 11 4 11 19 -3 10 -9 18 -20 18 -25z m2176 25 c21 -19 24 -36
10 -50 -5 -4 -6 -3 -3 3 4 6 -2 22 -13 34 -30 35 -26 42 6 13z m-2156 -43 c0
-5 -5 -10 -11 -10 -5 0 -7 5 -4 10 3 6 8 10 11 10 2 0 4 -4 4 -10z m35 -29 c3
-5 2 -12 -3 -15 -5 -3 -9 1 -9 9 0 17 3 19 12 6z m25 -25 c0 -3 -4 -8 -10 -11
-5 -3 -10 -1 -10 4 0 6 5 11 10 11 6 0 10 -2 10 -4z m30 -31 c11 -13 11 -18 0
-28 -10 -10 -11 -9 -5 2 5 9 1 19 -10 28 -11 7 -14 13 -8 13 6 0 16 -7 23 -15z
m2205 -14 c3 -5 0 -13 -6 -17 -7 -4 -9 -3 -5 4 3 6 -2 13 -11 15 -16 4 -16 5
-1 6 9 0 19 -3 23 -8z m-2178 -26 c0 -8 -4 -12 -9 -9 -5 3 -6 10 -3 15 9 13
12 11 12 -6z m28 -15 c3 -5 1 -10 -4 -10 -6 0 -11 5 -11 10 0 6 2 10 4 10 3 0
8 -4 11 -10z m20 -38 c-3 -3 -11 0 -18 7 -9 10 -8 11 6 5 10 -3 15 -9 12 -12z
m2202 6 c10 -17 14 -42 5 -33 -4 4 -7 12 -7 18 -1 7 -6 11 -13 10 -7 -2 -12 2
-12 7 0 14 17 12 27 -2z m90 -95 c21 -20 31 -31 22 -25 -9 7 -20 8 -24 4 -5
-4 -5 -2 -1 5 3 7 -2 14 -13 18 -11 3 -22 12 -25 20 -8 23 -1 18 41 -22z m83
-78 c7 -8 10 -15 6 -15 -3 0 -8 0 -11 0 -3 0 -5 3 -4 7 0 4 -8 10 -18 14 -15
6 -15 8 -2 8 9 1 22 -6 29 -14z m45 -44 c3 -5 2 -12 -3 -15 -5 -3 -9 1 -9 9 0
17 3 19 12 6z m64 -75 c0 -6 -3 -6 -6 2 -2 6 -10 9 -16 5 -7 -3 -9 -3 -5 2 4
4 2 15 -4 24 -8 10 -4 9 10 -3 12 -11 22 -24 21 -30z m101 -101 c0 -1 -7 -2
-15 -2 -8 0 -12 4 -10 8 3 4 -2 9 -10 13 -8 3 -15 10 -15 16 0 5 11 0 25 -12
14 -12 25 -22 25 -23z m177 -197 c-3 -8 -6 -5 -6 6 -1 11 2 17 5 13 3 -3 4
-12 1 -19z m41 -21 c7 -8 8 -18 1 -27 -8 -12 -9 -11 -7 5 2 12 -2 19 -9 18 -7
-2 -13 2 -13 7 0 14 16 12 28 -3z m-3113 -37 c3 -5 1 -10 -4 -10 -6 0 -11 5
-11 10 0 6 2 10 4 10 3 0 8 -4 11 -10z m3159 -30 c-6 -6 -10 -3 -10 10 0 13 4
16 10 10 7 -7 7 -13 0 -20z m-2864 -30 c0 -5 -5 -10 -11 -10 -5 0 -7 5 -4 10
3 6 8 10 11 10 2 0 4 -4 4 -10z m135 -39 c-3 -2 -11 2 -20 9 -12 10 -15 10
-15 0 0 -8 -3 -11 -6 -7 -14 14 7 26 26 15 11 -7 17 -14 15 -17z m30 19 c3 -5
1 -10 -4 -10 -6 0 -11 5 -11 10 0 6 2 10 4 10 3 0 8 -4 11 -10z m2791 -22 c16
-18 23 -28 15 -21 -7 6 -21 9 -30 6 -12 -4 -13 -3 -3 4 10 8 10 12 -2 22 -8 7
-20 10 -26 6 -5 -3 -10 -1 -10 4 0 21 27 11 56 -21z m-2751 12 c-3 -5 -12 -10
-18 -10 -7 0 -6 4 3 10 19 12 23 12 15 0z m86 -7 c13 -16 12 -17 -3 -4 -10 7
-18 15 -18 17 0 8 8 3 21 -13z m46 11 c-3 -3 -12 -4 -19 -1 -8 3 -5 6 6 6 11
1 17 -2 13 -5z m26 -9 c-3 -9 -8 -14 -10 -11 -3 3 -2 9 2 15 9 16 15 13 8 -4z
m55 -3 c8 -6 2 -9 -18 -9 -20 0 -26 3 -18 9 7 4 15 8 18 8 3 0 11 -4 18 -8z
m52 -4 c0 -4 -4 -8 -9 -8 -6 0 -12 4 -15 8 -3 5 1 9 9 9 8 0 15 -4 15 -9z m35
-6 c-3 -3 -11 0 -18 7 -9 10 -8 11 6 5 10 -3 15 -9 12 -12z m40 0 c-3 -3 -11
0 -18 7 -9 10 -8 11 6 5 10 -3 15 -9 12 -12z m102 12 c-3 -3 -12 -4 -19 -1 -8
3 -5 6 6 6 11 1 17 -2 13 -5z m60 -49 c0 -8 -4 -12 -9 -9 -5 3 -6 10 -3 15 9
13 12 11 12 -6z m2322 -29 c21 -22 21 -24 5 -22 -11 2 -19 9 -19 17 -1 8 -7
13 -14 11 -7 -1 -10 2 -6 8 8 13 8 14 34 -14z m-2279 -6 c0 -5 -2 -10 -4 -10
-3 0 -8 5 -11 10 -3 6 -1 10 4 10 6 0 11 -4 11 -10z m2337 -57 l28 -25 -31 21
c-17 11 -34 18 -37 15 -3 -3 -7 -1 -11 4 -11 18 24 8 51 -15z m-2276 -20 c13
-16 12 -17 -3 -4 -10 7 -18 15 -18 17 0 8 8 3 21 -13z m2482 -189 c20 -22 23
-31 12 -31 -8 0 -13 3 -10 5 9 10 -17 31 -31 25 -8 -3 -14 -3 -14 0 0 8 12 38
14 35 0 -2 13 -17 29 -34z m132 -134 c3 -5 1 -10 -4 -10 -6 0 -11 5 -11 10 0
6 2 10 4 10 3 0 8 -4 11 -10z m29 -29 c4 -5 -3 -7 -14 -4 -23 6 -26 13 -6 13
8 0 17 -4 20 -9z m-2167 -115 c0 -8 -6 -12 -15 -9 -11 5 -11 7 0 14 7 5 13 9
14 9 0 0 1 -6 1 -14z m3641 -321 c-3 -3 -9 2 -12 12 -6 14 -5 15 5 6 7 -7 10
-15 7 -18z m-967 -202 c8 -10 9 -14 2 -10 -14 9 -45 -32 -36 -47 4 -6 -2 -4
-13 4 -29 22 -30 24 -10 16 14 -5 17 -3 12 11 -4 10 -4 14 0 11 8 -8 34 14 27
25 -8 14 5 7 18 -10z m1154 -9 c9 -15 12 -23 6 -20 -11 7 -35 46 -28 46 3 0
12 -12 22 -26z m-1070 -4 c3 -5 1 -10 -4 -10 -6 0 -11 5 -11 10 0 6 2 10 4 10
3 0 8 -4 11 -10z m45 -34 c0 -3 -4 -8 -10 -11 -5 -3 -10 -1 -10 4 0 6 5 11 10
11 6 0 10 -2 10 -4z m1056 -15 c1 -6 0 -7 -3 -1 -2 5 -9 8 -13 5 -5 -3 -11 -1
-14 4 -4 5 2 8 11 7 9 -2 18 -8 19 -15z m-1240 -3 c4 -6 3 -8 -4 -4 -6 3 -13
2 -17 -4 -3 -5 -12 -10 -18 -10 -7 0 -3 7 7 15 24 18 23 18 32 3z m-56 -45
c-11 -8 -17 -19 -14 -25 4 -6 2 -8 -4 -4 -6 3 -18 -1 -27 -10 -12 -12 -13 -19
-5 -24 9 -5 9 -9 1 -14 -6 -4 -11 -3 -11 3 0 6 -6 9 -12 7 -7 -1 -10 -1 -5 1
4 3 4 10 0 16 -3 7 -3 9 1 5 10 -9 44 24 38 37 -3 6 -2 7 3 3 10 -10 37 11 29
23 -3 5 2 6 11 3 14 -6 13 -8 -5 -21z m1324 11 c9 -24 2 -26 -12 -4 -7 11 -8
20 -3 20 5 0 12 -7 15 -16z m41 -74 c3 -6 -1 -7 -9 -4 -18 7 -21 14 -7 14 6 0
13 -4 16 -10z m-1452 -28 c-12 -2 -25 -12 -28 -23 -4 -11 -11 -17 -16 -14 -5
4 -9 1 -9 -5 0 -6 -5 -8 -12 -4 -8 5 -5 11 10 17 12 6 24 18 27 27 4 13 12 16
28 12 l22 -7 -22 -3z m1456 -8 c4 3 8 -5 8 -16 2 -20 1 -20 -12 -2 -8 11 -14
24 -14 29 0 6 3 4 6 -3 2 -6 8 -10 12 -8z m-937 -29 c2 3 5 -2 5 -10 0 -19 1
-20 -28 12 -17 20 -18 23 -3 10 11 -9 23 -15 26 -12z m-572 -37 c0 -6 -6 -5
-15 2 -12 10 -16 9 -22 -6 -4 -11 -15 -25 -26 -33 -14 -10 -16 -16 -7 -21 9
-5 9 -9 1 -14 -6 -4 -11 -3 -11 3 0 6 -8 8 -17 5 -17 -5 -17 -5 0 6 9 6 15 16
11 21 -3 5 0 8 8 7 7 -2 12 4 10 12 -2 8 0 12 4 8 4 -5 13 1 21 12 13 19 43
18 43 -2z m1540 12 c0 -5 -4 -10 -10 -10 -5 0 -10 5 -10 10 0 6 5 10 10 10 6
0 10 -4 10 -10z m15 -30 c3 -5 1 -10 -4 -10 -6 0 -11 5 -11 10 0 6 2 10 4 10
3 0 8 -4 11 -10z m-1654 -68 c-7 -2 -18 1 -23 6 -8 8 -4 9 13 5 13 -4 18 -8
10 -11z m1674 8 c3 -5 1 -10 -4 -10 -6 0 -11 5 -11 10 0 6 2 10 4 10 3 0 8 -4
11 -10z m-1684 -28 c-7 -2 -18 1 -23 6 -8 8 -4 9 13 5 13 -4 18 -8 10 -11z
m-25 -20 c1 -7 0 -8 -3 -2 -8 16 -23 1 -17 -18 4 -10 2 -13 -3 -7 -9 12 -28
13 -39 3 -4 -5 1 -8 11 -8 10 0 16 -3 12 -6 -3 -4 -14 -4 -23 0 -13 5 -14 9
-4 21 7 8 16 12 21 9 5 -3 12 2 15 11 7 18 26 16 30 -3z m1716 1 c-6 -2 -10
-9 -7 -13 3 -5 1 -11 -4 -14 -7 -5 -8 11 -2 32 1 1 7 2 14 1 9 0 9 -2 -1 -6z
m18 -33 c0 -5 -5 -10 -11 -10 -5 0 -7 5 -4 10 3 6 8 10 11 10 2 0 4 -4 4 -10z
m-1789 -28 c-7 -2 -18 1 -23 6 -8 8 -4 9 13 5 13 -4 18 -8 10 -11z m-25 -13
c8 -14 -11 -33 -25 -25 -11 7 -4 36 9 36 5 0 12 -5 16 -11z m-36 -33 c8 -11
10 -17 4 -13 -12 7 -76 -41 -69 -52 2 -4 -6 -8 -18 -8 -20 -2 -20 -1 -4 8 9 6
14 15 11 21 -4 7 -2 8 5 4 6 -4 14 -1 17 8 3 8 14 18 24 21 13 4 17 12 13 23
-7 18 -5 17 17 -12z m1130 -20 c0 -3 -4 -8 -10 -11 -5 -3 -10 -1 -10 4 0 6 5
11 10 11 6 0 10 -2 10 -4z m736 -34 c3 -17 1 -33 -3 -35 -5 -3 -9 12 -9 34 0
44 5 45 12 1z m-1982 -57 c-16 -14 -41 -39 -56 -56 -16 -18 -28 -27 -28 -21 0
14 89 102 103 102 5 0 -3 -11 -19 -25z m2006 -55 c0 -5 -2 -10 -4 -10 -3 0 -8
5 -11 10 -3 6 -1 10 4 10 6 0 11 -4 11 -10z m-597 -27 c-5 -12 -3 -14 7 -8 9
6 11 4 5 -4 -5 -9 -11 -9 -17 -3 -6 6 -7 15 -4 21 11 17 16 13 9 -6z m592 -3
c-3 -5 -12 -10 -18 -10 -7 0 -6 4 3 10 19 12 23 12 15 0z m-534 -57 c13 -16
12 -17 -3 -4 -10 7 -18 15 -18 17 0 8 8 3 21 -13z m-1637 -28 c-9 -14 -21 -22
-26 -19 -5 3 -1 14 9 24 26 27 36 24 17 -5z m12 -23 c-17 -16 -18 -16 -5 5 7
12 15 20 18 17 3 -2 -3 -12 -13 -22z m1709 -22 c3 -6 -1 -7 -9 -4 -18 7 -21
14 -7 14 6 0 13 -4 16 -10z m453 -15 c-3 -3 -9 2 -12 12 -6 14 -5 15 5 6 7 -7
10 -15 7 -18z m2 -19 c0 -3 -4 -8 -10 -11 -5 -3 -10 -1 -10 4 0 6 5 11 10 11
6 0 10 -2 10 -4z m5 -66 c3 -6 -1 -7 -9 -4 -18 7 -21 14 -7 14 6 0 13 -4 16
-10z m-10 -65 c0 -24 -4 -41 -8 -38 -5 3 -7 15 -5 26 1 12 -2 28 -6 36 -7 10
-6 12 4 6 10 -6 12 -4 6 11 -4 10 -3 15 1 10 4 -4 8 -27 8 -51z m-2330 25 c3
-5 -5 -6 -17 -2 -14 3 -19 1 -14 -6 4 -7 -3 -16 -18 -23 -16 -8 -22 -17 -19
-27 4 -10 2 -13 -5 -8 -6 3 -10 15 -9 26 1 10 4 17 8 14 4 -2 15 -1 24 2 13 5
14 8 3 15 -10 7 -11 9 0 9 7 0 11 4 8 9 -4 5 3 7 14 4 11 -3 22 -9 25 -13z
m-89 -84 c2 -12 1 -13 -3 -1 -5 17 -19 20 -28 5 -3 -5 -1 -10 4 -10 6 0 11 -5
11 -11 0 -8 -5 -8 -15 1 -12 10 -13 16 -4 27 15 17 34 12 35 -11z m2404 10 c0
-3 -4 -8 -10 -11 -5 -3 -10 -1 -10 4 0 6 5 11 10 11 6 0 10 -2 10 -4z m15 -26
c3 -5 1 -10 -4 -10 -6 0 -11 5 -11 10 0 6 2 10 4 10 3 0 8 -4 11 -10z m-24
-43 c-10 -9 -11 -8 -5 6 3 10 9 15 12 12 3 -3 0 -11 -7 -18z m-120 -14 c13
-16 12 -17 -3 -4 -10 7 -18 15 -18 17 0 8 8 3 21 -13z m124 -25 c-9 -6 -19 -7
-22 -4 -4 3 -1 6 6 6 7 0 9 4 6 10 -4 6 1 7 11 3 15 -6 15 -7 -1 -15z m-2399
-10 c12 -14 13 -18 3 -10 -9 6 -18 10 -21 7 -2 -3 -5 2 -5 10 0 19 0 19 23 -7z
m2301 7 c0 -8 -4 -12 -9 -9 -5 3 -6 10 -3 15 9 13 12 11 12 -6z m-2203 -107
c19 -26 20 -38 5 -38 -5 0 -8 4 -5 8 2 4 1 14 -5 22 -7 13 -9 13 -9 0 0 -13
-1 -13 -10 0 -23 35 0 42 24 8z m85 -92 c8 -10 9 -16 1 -21 -6 -4 -9 -1 -8 7
2 7 -3 12 -10 10 -8 -1 -11 2 -7 8 8 13 10 13 24 -4z m94 -112 c-4 -12 -8 -13
-14 -3 -9 15 -2 32 11 24 5 -3 6 -13 3 -21z m57 -60 c0 -8 -19 -13 -24 -6 -3
5 1 9 9 9 8 0 15 -2 15 -3z m24 -25 c-3 -5 -10 -7 -15 -3 -5 3 -7 10 -3 15 3
5 10 7 15 3 5 -3 7 -10 3 -15z m26 -13 c0 -3 -4 -8 -10 -11 -5 -3 -10 -1 -10
4 0 6 5 11 10 11 6 0 10 -2 10 -4z m173 -184 c15 -16 15 -19 2 -19 -8 0 -13 3
-10 5 3 3 0 11 -6 19 -17 20 -5 16 14 -5z m61 -69 c4 -10 4 -14 0 -10 -4 4
-14 1 -22 -6 -13 -11 -14 -9 -1 11 17 26 15 26 23 5z m133 -148 c0 -11 -4 -12
-14 -3 -7 6 -11 13 -8 16 6 7 -15 32 -27 32 -5 0 -6 -6 -2 -12 4 -8 3 -9 -2
-5 -5 5 -9 16 -9 25 0 9 -6 16 -13 14 -8 -1 -11 2 -7 9 9 13 82 -55 82 -76z
m68 -85 c3 -5 1 -10 -4 -10 -6 0 -11 5 -11 10 0 6 2 10 4 10 3 0 8 -4 11 -10z
m41 -22 c10 -12 14 -18 7 -15 -6 4 -13 4 -16 0 -2 -5 -3 -3 -1 3 1 6 -3 17 -9
23 -6 6 -9 11 -6 11 3 0 14 -10 25 -22z m48 -54 c3 -8 2 -12 -4 -9 -6 3 -10
10 -10 16 0 14 7 11 14 -7z m31 -33 c3 -5 0 -13 -6 -17 -7 -4 -9 -3 -5 4 3 6
-2 13 -11 15 -16 4 -16 5 -1 6 9 0 19 -3 23 -8z m25 -15 c0 -2 -8 -10 -17 -17
-16 -13 -17 -12 -4 4 13 16 21 21 21 13z m-993 -43 c0 -9 -4 -10 -14 -2 -7 6
-13 12 -13 14 0 1 6 2 13 2 8 0 14 -6 14 -14z m1052 -36 c0 -9 -2 -8 -6 1 -2
6 -10 9 -15 6 -7 -4 -8 -2 -4 5 9 13 26 5 25 -12z m-949 -17 c8 -5 11 -10 5
-10 -5 0 -17 5 -25 10 -8 5 -10 10 -5 10 6 0 17 -5 25 -10z m54 -22 c-3 -4
-12 -8 -20 -8 -8 0 -14 4 -14 8 0 4 9 8 19 8 11 0 17 -4 15 -8z m48 -22 c10 6
11 4 0 -7 -10 -11 -15 -10 -30 6 -15 17 -15 18 0 6 9 -7 23 -9 30 -5z m911 7
c3 -5 -5 -8 -18 -8 -13 0 -21 3 -18 8 2 4 10 7 18 7 8 0 16 -3 18 -7z m-723
-73 c0 -5 -5 -10 -11 -10 -5 0 -7 5 -4 10 3 6 8 10 11 10 2 0 4 -4 4 -10z m43
-17 c-7 -2 -19 -2 -25 0 -7 3 -2 5 12 5 14 0 19 -2 13 -5z m101 -15 c-3 -4 -9
-8 -15 -8 -5 0 -9 4 -9 8 0 5 7 9 15 9 8 0 12 -4 9 -9z m616 -3 c-7 -9 -15
-13 -19 -10 -3 3 1 10 9 15 21 14 24 12 10 -5z m-543 -10 c0 -8 -4 -12 -9 -9
-5 3 -6 10 -3 15 9 13 12 11 12 -6z m27 -1 c3 -8 2 -12 -4 -9 -6 3 -10 10 -10
16 0 14 7 11 14 -7z m434 -9 c-3 -3 -9 2 -12 12 -6 14 -5 15 5 6 7 -7 10 -15
7 -18z m-341 0 c0 -8 -4 -12 -9 -9 -5 3 -6 10 -3 15 9 13 12 11 12 -6z m200 0
c0 -8 -4 -12 -9 -9 -5 3 -6 10 -3 15 9 13 12 11 12 -6z m103 5 c0 -5 -2 -10
-4 -10 -3 0 -8 5 -11 10 -3 6 -1 10 4 10 6 0 11 -4 11 -10z m-65 -18 c-3 -3
-11 0 -18 7 -9 10 -8 11 6 5 10 -3 15 -9 12 -12z"/>
<path d="M6555 3780 c-3 -5 -1 -10 4 -10 6 0 11 5 11 10 0 6 -2 10 -4 10 -3 0
-8 -4 -11 -10z"/>
<path d="M8335 8439 c-4 -6 -5 -12 -2 -15 2 -3 7 2 10 11 7 17 1 20 -8 4z"/>
<path d="M8480 8239 c0 -3 15 -18 32 -35 18 -16 25 -19 15 -8 -10 12 -15 24
-10 26 4 3 3 4 -3 2 -6 -1 -17 3 -23 9 -6 6 -11 9 -11 6z"/>
<path d="M8585 8120 c10 -11 20 -20 23 -20 3 0 -3 9 -13 20 -10 11 -20 20 -23
20 -3 0 3 -9 13 -20z"/>
<path d="M1540 8060 c-8 -5 -11 -10 -6 -10 5 0 2 -8 -5 -17 -9 -11 -10 -14 -2
-9 12 6 38 46 31 46 -2 0 -10 -5 -18 -10z"/>
<path d="M8630 8066 c0 -2 8 -10 18 -17 15 -13 16 -12 3 4 -13 16 -21 21 -21
13z"/>
<path d="M8685 8011 c-6 -11 13 -26 22 -17 4 3 1 6 -6 6 -7 0 -9 5 -6 10 3 6
4 10 1 10 -3 0 -7 -4 -11 -9z"/>
<path d="M1250 7655 c-7 -9 -11 -17 -9 -20 3 -2 10 5 17 15 14 24 10 26 -8 5z"/>
<path d="M9094 7451 c2 -14 8 -27 14 -29 7 -2 9 -9 6 -14 -5 -7 -2 -8 6 -3 10
6 9 11 -6 22 -10 8 -18 16 -16 19 2 2 1 10 -2 17 -2 6 -3 1 -2 -12z"/>
<path d="M9148 7333 c7 -3 16 -2 19 1 4 3 -2 6 -13 5 -11 0 -14 -3 -6 -6z"/>
<path d="M9168 7313 c6 -2 9 -10 6 -15 -4 -7 -2 -8 5 -4 13 9 5 26 -12 25 -9
0 -8 -2 1 -6z"/>
<path d="M9195 7240 c-3 -6 1 -7 9 -4 18 7 21 14 7 14 -6 0 -13 -4 -16 -10z"/>
<path d="M9215 7219 c-4 -6 -5 -12 -2 -15 2 -3 7 2 10 11 7 17 1 20 -8 4z"/>
<path d="M915 7049 c-4 -6 -5 -12 -2 -15 2 -3 7 2 10 11 7 17 1 20 -8 4z"/>
<path d="M9320 7025 c0 -5 5 -17 10 -25 5 -8 10 -10 10 -5 0 6 -5 17 -10 25
-5 8 -10 11 -10 5z"/>
<path d="M860 6972 c0 -5 7 -9 15 -9 8 0 12 4 9 9 -3 4 -9 8 -15 8 -5 0 -9 -4
-9 -8z"/>
<path d="M860 6935 c-7 -9 -8 -15 -2 -15 5 0 12 7 16 15 3 8 4 15 2 15 -2 0
-9 -7 -16 -15z"/>
<path d="M2334 6918 c-4 -7 -4 -10 1 -6 4 4 14 0 21 -10 7 -9 14 -15 17 -12 2
3 -4 13 -13 23 -14 15 -20 16 -26 5z"/>
<path d="M9375 6850 c3 -5 8 -10 11 -10 2 0 4 5 4 10 0 6 -5 10 -11 10 -5 0
-7 -4 -4 -10z"/>
<path d="M9399 6838 c-5 -18 -6 -38 -1 -34 7 8 12 36 6 36 -2 0 -4 -1 -5 -2z"/>
<path d="M9405 6789 c-6 -8 -4 -10 5 -4 10 6 12 4 6 -11 -6 -15 -5 -17 5 -6 9
9 10 15 2 23 -8 8 -13 7 -18 -2z"/>
<path d="M785 6761 c-3 -5 -2 -12 3 -15 5 -3 9 1 9 9 0 17 -3 19 -12 6z"/>
<path d="M9430 6710 c0 -6 7 -10 15 -10 8 0 15 2 15 4 0 2 -7 6 -15 10 -8 3
-15 1 -15 -4z"/>
<path d="M786 6614 c-14 -43 -24 -79 -22 -81 2 -2 16 31 30 73 14 43 24 79 22
81 -2 2 -16 -31 -30 -73z"/>
<path d="M9455 6670 c-3 -5 -1 -10 4 -10 6 0 11 5 11 10 0 6 -2 10 -4 10 -3 0
-8 -4 -11 -10z"/>
<path d="M9476 6593 c-6 -14 -5 -15 5 -6 7 7 10 15 7 18 -3 3 -9 -2 -12 -12z"/>
<path d="M726 6587 c3 -10 9 -15 12 -12 3 3 0 11 -7 18 -10 9 -11 8 -5 -6z"/>
<path d="M713 6553 c4 -3 2 -12 -4 -19 -7 -8 -6 -14 2 -20 7 -4 9 -3 5 4 -3 6
-2 13 4 17 14 8 13 25 -2 25 -6 0 -8 -3 -5 -7z"/>
<path d="M751 6504 c0 -11 3 -14 6 -6 3 7 2 16 -1 19 -3 4 -6 -2 -5 -13z"/>
<path d="M9505 6490 c3 -5 11 -10 16 -10 6 0 7 5 4 10 -3 6 -11 10 -16 10 -6
0 -7 -4 -4 -10z"/>
<path d="M695 6480 c3 -5 8 -10 11 -10 2 0 4 5 4 10 0 6 -5 10 -11 10 -5 0 -7
-4 -4 -10z"/>
<path d="M736 6465 c-3 -9 -6 -22 -5 -28 0 -7 5 -1 10 12 5 13 8 26 5 28 -2 2
-6 -3 -10 -12z"/>
<path d="M9526 6453 c-6 -14 -5 -15 5 -6 7 7 10 15 7 18 -3 3 -9 -2 -12 -12z"/>
<path d="M721 6404 c0 -11 3 -14 6 -6 3 7 2 16 -1 19 -3 4 -6 -2 -5 -13z"/>
<path d="M9540 6410 c0 -5 5 -10 11 -10 5 0 7 5 4 10 -3 6 -8 10 -11 10 -2 0
-4 -4 -4 -10z"/>
<path d="M667 6383 c-4 -3 -7 -11 -7 -17 0 -6 5 -5 12 2 6 6 9 14 7 17 -3 3
-9 2 -12 -2z"/>
<path d="M9550 6349 c0 -5 5 -7 10 -4 6 3 10 8 10 11 0 2 -4 4 -10 4 -5 0 -10
-5 -10 -11z"/>
<path d="M9592 6211 c-11 -7 -11 -9 0 -14 9 -3 15 1 15 9 0 8 -1 14 -1 14 -1
0 -7 -4 -14 -9z"/>
<path d="M596 6112 c2 -2 -2 -14 -8 -26 -10 -20 -10 -20 8 -4 12 12 15 21 8
27 -6 5 -9 6 -8 3z"/>
<path d="M9610 6090 c0 -5 5 -10 10 -10 6 0 10 5 10 10 0 6 -4 10 -10 10 -5 0
-10 -4 -10 -10z"/>
<path d="M631 6034 c0 -11 3 -14 6 -6 3 7 2 16 -1 19 -3 4 -6 -2 -5 -13z"/>
<path d="M621 5984 c0 -11 3 -14 6 -6 3 7 2 16 -1 19 -3 4 -6 -2 -5 -13z"/>
<path d="M9654 5891 c2 -14 9 -27 17 -29 11 -3 12 -2 1 6 -8 5 -13 12 -12 16
1 4 -1 12 -4 19 -2 6 -3 1 -2 -12z"/>
<path d="M592 5810 c0 -14 2 -19 5 -12 2 6 2 18 0 25 -3 6 -5 1 -5 -13z"/>
<path d="M582 5740 c0 -14 2 -19 5 -12 2 6 2 18 0 25 -3 6 -5 1 -5 -13z"/>
<path d="M9673 5738 c1 -15 6 -23 11 -18 4 4 4 16 -2 26 -9 16 -10 14 -9 -8z"/>
<path d="M5706 5742 c-3 -5 8 -22 25 -38 19 -18 28 -23 24 -11 -4 9 -11 17
-17 17 -5 0 -7 4 -4 9 3 5 -1 14 -8 20 -8 7 -17 8 -20 3z"/>
<path d="M525 5690 c4 -6 0 -24 -9 -40 -8 -17 -10 -32 -5 -36 5 -3 5 -12 0
-23 -7 -13 -6 -18 4 -18 21 0 26 24 9 38 -10 8 -11 15 -5 19 16 9 26 70 12 70
-7 0 -9 -5 -6 -10z"/>
<path d="M9688 5633 c10 -4 10 -8 0 -21 -12 -15 -11 -16 4 -3 19 14 15 32 -5
30 -8 0 -8 -2 1 -6z"/>
<path d="M9695 5590 c-3 -5 -1 -10 4 -10 6 0 11 5 11 10 0 6 -2 10 -4 10 -3 0
-8 -4 -11 -10z"/>
<path d="M9696 5513 c-6 -14 -5 -15 5 -6 7 7 10 15 7 18 -3 3 -9 -2 -12 -12z"/>
<path d="M2906 5478 c3 -5 10 -6 15 -3 13 9 11 12 -6 12 -8 0 -12 -4 -9 -9z"/>
<path d="M9710 5415 c0 -8 4 -15 8 -15 5 0 9 7 9 15 0 8 -4 15 -9 15 -4 0 -8
-7 -8 -15z"/>
<path d="M495 5379 c-4 -6 -5 -12 -2 -15 2 -3 7 2 10 11 7 17 1 20 -8 4z"/>
<path d="M495 5296 c0 -30 3 -58 8 -62 4 -4 7 20 6 54 -2 76 -14 83 -14 8z"/>
<path d="M9700 5330 c0 -5 5 -10 11 -10 5 0 7 5 4 10 -3 6 -8 10 -11 10 -2 0
-4 -4 -4 -10z"/>
<path d="M9720 5210 c0 -5 5 -10 11 -10 5 0 7 5 4 10 -3 6 -8 10 -11 10 -2 0
-4 -4 -4 -10z"/>
<path d="M542 5140 c0 -14 2 -19 5 -12 2 6 2 18 0 25 -3 6 -5 1 -5 -13z"/>
<path d="M9710 5116 c0 -2 7 -7 16 -10 8 -3 12 -2 9 4 -6 10 -25 14 -25 6z"/>
<path d="M543 5050 c0 -36 2 -50 4 -32 2 17 2 47 0 65 -2 17 -4 3 -4 -33z"/>
<path d="M9713 5015 c0 -8 4 -12 9 -9 5 3 6 10 3 15 -9 13 -12 11 -12 -6z"/>
<path d="M494 4985 c-1 -14 2 -25 7 -25 5 0 9 11 9 25 0 33 -15 33 -16 0z"/>
<path d="M496 4935 c4 -8 8 -15 10 -15 2 0 4 7 4 15 0 8 -4 15 -10 15 -5 0 -7
-7 -4 -15z"/>
<path d="M495 4900 c3 -5 8 -10 11 -10 2 0 4 5 4 10 0 6 -5 10 -11 10 -5 0 -7
-4 -4 -10z"/>
<path d="M9710 4871 c0 -6 4 -12 8 -15 5 -3 9 1 9 9 0 8 -4 15 -9 15 -4 0 -8
-4 -8 -9z"/>
<path d="M552 4805 c0 -16 2 -22 5 -12 2 9 2 23 0 30 -3 6 -5 -1 -5 -18z"/>
<path d="M9700 4826 c0 -2 7 -7 16 -10 8 -3 12 -2 9 4 -6 10 -25 14 -25 6z"/>
<path d="M4390 4731 c0 -10 19 -25 25 -20 1 2 -3 10 -11 17 -8 7 -14 8 -14 3z"/>
<path d="M561 4684 c0 -11 3 -14 6 -6 3 7 2 16 -1 19 -3 4 -6 -2 -5 -13z"/>
<path d="M9693 4655 c0 -8 4 -15 9 -15 4 0 8 4 8 9 0 6 -4 12 -8 15 -5 3 -9
-1 -9 -9z"/>
<path d="M571 4584 c0 -11 3 -14 6 -6 3 7 2 16 -1 19 -3 4 -6 -2 -5 -13z"/>
<path d="M9670 4566 c0 -2 7 -9 15 -16 13 -11 14 -10 9 4 -5 14 -24 23 -24 12z"/>
<path d="M581 4514 c0 -11 3 -14 6 -6 3 7 2 16 -1 19 -3 4 -6 -2 -5 -13z"/>
<path d="M9677 4519 c7 -7 15 -10 18 -7 3 3 -2 9 -12 12 -14 6 -15 5 -6 -5z"/>
<path d="M9681 4487 c-1 -11 -6 -15 -13 -11 -7 5 -8 3 -3 -5 10 -16 29 2 22
21 -4 8 -6 7 -6 -5z"/>
<path d="M591 4434 c0 -11 3 -14 6 -6 3 7 2 16 -1 19 -3 4 -6 -2 -5 -13z"/>
<path d="M601 4374 c0 -11 3 -14 6 -6 3 7 2 16 -1 19 -3 4 -6 -2 -5 -13z"/>
<path d="M9640 4330 c0 -5 5 -10 11 -10 5 0 7 5 4 10 -3 6 -8 10 -11 10 -2 0
-4 -4 -4 -10z"/>
<path d="M611 4314 c0 -11 3 -14 6 -6 3 7 2 16 -1 19 -3 4 -6 -2 -5 -13z"/>
<path d="M9635 4290 c-3 -6 1 -7 9 -4 18 7 21 14 7 14 -6 0 -13 -4 -16 -10z"/>
<path d="M9633 4240 c-1 -11 2 -20 7 -20 4 0 7 7 6 15 -3 23 -12 26 -13 5z"/>
<path d="M631 4204 c0 -11 3 -14 6 -6 3 7 2 16 -1 19 -3 4 -6 -2 -5 -13z"/>
<path d="M4910 4211 c0 -5 7 -12 16 -15 14 -5 15 -4 4 9 -14 17 -20 19 -20 6z"/>
<path d="M9605 4149 c-4 -6 -5 -12 -2 -15 2 -3 7 2 10 11 7 17 1 20 -8 4z"/>
<path d="M651 4114 c0 -11 3 -14 6 -6 3 7 2 16 -1 19 -3 4 -6 -2 -5 -13z"/>
<path d="M9595 4090 c-3 -6 1 -7 9 -4 18 7 21 14 7 14 -6 0 -13 -4 -16 -10z"/>
<path d="M9575 3991 c-3 -5 0 -13 6 -17 7 -4 9 -3 5 4 -3 5 0 13 6 15 9 4 10
6 1 6 -6 1 -14 -3 -18 -8z"/>
<path d="M9575 3949 c-4 -6 -5 -12 -2 -15 2 -3 7 2 10 11 7 17 1 20 -8 4z"/>
<path d="M9540 3892 c0 -5 7 -9 15 -9 8 0 15 4 15 9 0 4 -7 8 -15 8 -8 0 -15
-4 -15 -8z"/>
<path d="M663 3858 c2 -12 10 -24 18 -26 9 -2 10 -1 3 5 -6 4 -10 16 -8 26 1
9 -2 17 -7 17 -5 0 -7 -10 -6 -22z"/>
<path d="M9537 3846 c-4 -10 -1 -13 9 -9 15 6 19 23 5 23 -5 0 -11 -7 -14 -14z"/>
<path d="M684 3800 c0 -13 4 -16 10 -10 7 7 7 13 0 20 -6 6 -10 3 -10 -10z"/>
<path d="M741 3774 c0 -11 3 -14 6 -6 3 7 2 16 -1 19 -3 4 -6 -2 -5 -13z"/>
<path d="M9490 3710 c-9 -6 -10 -10 -3 -10 6 0 15 5 18 10 8 12 4 12 -15 0z"/>
<path d="M9477 3643 c-10 -9 -9 -23 1 -23 5 0 9 7 9 15 0 17 -1 18 -10 8z"/>
<path d="M806 3580 c3 -14 11 -32 16 -40 6 -10 7 -7 2 10 -3 14 -11 32 -16 40
-6 10 -7 7 -2 -10z"/>
<path d="M9447 3569 c7 -7 15 -10 18 -7 3 3 -2 9 -12 12 -14 6 -15 5 -6 -5z"/>
<path d="M840 3485 c0 -5 5 -17 10 -25 5 -8 10 -10 10 -5 0 6 -5 17 -10 25 -5
8 -10 11 -10 5z"/>
<path d="M860 3435 c0 -5 5 -17 10 -25 5 -8 10 -10 10 -5 0 6 -5 17 -10 25 -5
8 -10 11 -10 5z"/>
<path d="M9395 3430 c3 -5 8 -10 11 -10 2 0 4 5 4 10 0 6 -5 10 -11 10 -5 0
-7 -4 -4 -10z"/>
<path d="M830 3370 c6 -11 16 -20 23 -19 9 0 9 2 -1 6 -6 2 -10 8 -7 13 3 4
-2 11 -10 14 -13 4 -14 2 -5 -14z"/>
<path d="M9366 3368 c3 -5 10 -6 15 -3 13 9 11 12 -6 12 -8 0 -12 -4 -9 -9z"/>
<path d="M9230 3068 c0 -4 4 -8 9 -8 6 0 12 4 15 8 3 5 -1 9 -9 9 -8 0 -15 -4
-15 -9z"/>
<path d="M9156 2932 c-3 -5 1 -9 9 -9 8 0 12 4 9 9 -3 4 -7 8 -9 8 -2 0 -6 -4
-9 -8z"/>
<path d="M9127 2869 c7 -7 15 -10 18 -7 3 3 -2 9 -12 12 -14 6 -15 5 -6 -5z"/>
<path d="M9075 2760 c-4 -6 -11 -7 -17 -4 -7 4 -8 2 -4 -5 6 -9 11 -9 22 0 14
11 18 19 10 19 -3 0 -8 -5 -11 -10z"/>
<path d="M8835 2419 c-4 -6 -5 -12 -2 -15 2 -3 7 2 10 11 7 17 1 20 -8 4z"/>
<path d="M6790 2272 c6 -13 14 -21 18 -18 3 4 -2 14 -12 24 -18 16 -18 16 -6
-6z"/>
<path d="M8529 2053 c-13 -16 -12 -17 4 -4 16 13 21 21 13 21 -2 0 -10 -8 -17
-17z"/>
<path d="M8504 2008 l-19 -23 23 19 c12 11 22 21 22 23 0 8 -8 2 -26 -19z"/>
<path d="M6260 1896 c0 -9 5 -16 10 -16 6 0 10 4 10 9 0 6 -4 13 -10 16 -5 3
-10 -1 -10 -9z"/>
<path d="M8379 1898 c-5 -18 -6 -38 -1 -34 7 8 12 36 6 36 -2 0 -4 -1 -5 -2z"/>
<path d="M8290 1789 c0 -5 5 -7 10 -4 6 3 10 8 10 11 0 2 -4 4 -10 4 -5 0 -10
-5 -10 -11z"/>
<path d="M8235 1751 c-3 -5 -2 -12 3 -15 5 -3 9 1 9 9 0 17 -3 19 -12 6z"/>
<path d="M8095 1619 c-4 -6 -5 -12 -2 -15 2 -3 7 2 10 11 7 17 1 20 -8 4z"/>
<path d="M7934 1499 c-3 -6 -2 -15 3 -20 5 -5 9 -1 9 11 0 23 -2 24 -12 9z"/>
<path d="M7746 1348 c3 -5 10 -6 15 -3 13 9 11 12 -6 12 -8 0 -12 -4 -9 -9z"/>
<path d="M7716 1323 c-6 -14 -5 -15 5 -6 7 7 10 15 7 18 -3 3 -9 -2 -12 -12z"/>
<path d="M7656 1283 c-6 -14 -5 -15 5 -6 7 7 10 15 7 18 -3 3 -9 -2 -12 -12z"/>
<path d="M7495 1190 c-3 -5 -1 -10 4 -10 6 0 11 5 11 10 0 6 -2 10 -4 10 -3 0
-8 -4 -11 -10z"/>
<path d="M7266 1072 c-3 -5 1 -9 9 -9 8 0 12 4 9 9 -3 4 -7 8 -9 8 -2 0 -6 -4
-9 -8z"/>
<path d="M7306 1068 c3 -5 10 -6 15 -3 13 9 11 12 -6 12 -8 0 -12 -4 -9 -9z"/>
<path d="M7066 972 c-3 -5 1 -9 9 -9 8 0 12 4 9 9 -3 4 -7 8 -9 8 -2 0 -6 -4
-9 -8z"/>
<path d="M6993 915 c0 -8 4 -12 9 -9 5 3 6 10 3 15 -9 13 -12 11 -12 -6z"/>
<path d="M6956 912 c-3 -5 1 -9 9 -9 8 0 12 4 9 9 -3 4 -7 8 -9 8 -2 0 -6 -4
-9 -8z"/>
<path d="M6896 885 c-9 -26 -7 -32 5 -12 6 10 9 21 6 23 -2 3 -7 -2 -11 -11z"/>
<path d="M6176 643 c-6 -14 -5 -15 5 -6 7 7 10 15 7 18 -3 3 -9 -2 -12 -12z"/>
<path d="M5240 530 c-12 -7 -10 -9 7 -7 12 0 19 5 17 9 -6 10 -6 10 -24 -2z"/>
<path d="M5340 536 c0 -2 8 -10 18 -17 15 -13 16 -12 3 4 -13 16 -21 21 -21
13z"/>
</g>
</svg>
